# Created by Kenney (www.kenney.nl)

mtllib b_ladder.mtl

v 9 -6 0.5
v 9 -5 0.5
v 10 -6 0.5
v 9.5 -5.5 0.5
v 10 -5 0.5
v 9 -6 -2
v 10 -6 -2
v 9 -5 -2
v 9.5 -5.5 -2
v 10 -5 -2
v 9.258819 -14.96593 0.5
v 9.258819 -14.96593 -2
v 9 -15 0.5
v 9.5 -14.86602 0.5
v 9.5 -14.86602 -2
v 9.707107 -14.70711 0.5
v 9.707107 -14.70711 -2
v 9.866025 -14.5 0.5
v 9 -15 -2
v 9.965926 -14.25882 -2
v 9.866025 -14.5 -2
v 9.965926 -14.25882 0.5
v 9 -14 -2
v 9 -14 0.5
v 10 -14 -2
v 10 -14 0.5
v 5.707107 -5.707107 -1.5
v 5.5 -5.866025 -1.5
v 6 -6 -1.5
v 5.866025 -5.5 -1.5
v 5.965926 -5.258819 -1.5
v 6 -5 -1.5
v 5 -6 -1.5
v 5.258819 -5.965926 -1.5
v 6 -6 0.5
v 5 -6 0.5
v 6 -5 0.5
v 5.258819 -5.965926 0.5
v 5.866025 -5.5 0.5
v 5.965926 -5.258819 0.5
v 5.707107 -5.707107 0.5
v 5.5 -5.866025 0.5
v 6 -10 0.5
v 5.965926 -9.741181 0.5
v 6 -9 0.5
v 5.866025 -9.5 0.5
v 5.707107 -9.292893 0.5
v 5.5 -9.133975 0.5
v 5.258819 -9.034074 0.5
v 5 -9 0.5
v 5.866025 -9.5 -2
v 5.707107 -9.292893 -2
v 6 -10 -2
v 6 -9 -2
v 5.965926 -9.741181 -2
v 5.5 -9.133975 -2
v 5.258819 -9.034074 -2
v 5 -9 -2
v -5 -6 0.5
v -5 -6 -1.5
v -6 -6 0.5
v -6 -6 -1.5
v -5.965926 -5.258819 -1.5
v -5.866025 -5.5 -1.5
v -5.965926 -5.258819 0.5
v -5.258819 -5.965926 -1.5
v -5.5 -5.866025 -1.5
v -5.707107 -5.707107 -1.5
v -6 -5 -1.5
v -6 -5 0.5
v -5.258819 -5.965926 0.5
v -5.5 -5.866025 0.5
v -5.707107 -5.707107 0.5
v -5.866025 -5.5 0.5
v -6 -10 -2
v -5.965926 -9.741181 -2
v -6 -9 -2
v -5.866025 -9.5 -2
v -5.707107 -9.292893 -2
v -5.5 -9.133975 -2
v -5.258819 -9.034074 -2
v -5 -9 -2
v -5.965926 -9.741181 0.5
v -6 -10 0.5
v -5.866025 -9.5 0.5
v -5.5 -9.133975 0.5
v -5.707107 -9.292893 0.5
v -6 -9 0.5
v -5 -9 0.5
v -5.258819 -9.034074 0.5
v -10 -6 0.5
v -9.5 -5.5 0.5
v -9 -6 0.5
v -9 -5 0.5
v -10 -5 0.5
v -10 -6 -2
v -9 -6 -2
v -9.5 -5.5 -2
v -9 -5 -2
v -10 -5 -2
v -9.5 -14.86602 0.5
v -9.5 -14.86602 -2
v -9.707107 -14.70711 0.5
v -9.707107 -14.70711 -2
v -9.866025 -14.5 -2
v -9.965926 -14.25882 -2
v -9.866025 -14.5 0.5
v -10 -14 0.5
v -9.965926 -14.25882 0.5
v -10 -14 -2
v -9 -15 0.5
v -9 -15 -2
v -9.258819 -14.96593 0.5
v -9.258819 -14.96593 -2
v -9 -14 -2
v -9 -14 0.5
v 10 -1 -2
v 10 -1 0.5
v 9 -1 -2
v 9 -1 0.5
v 9 -2 -2
v 9 -2 0.5
v 6 -1 -2
v 6 -1 0.5
v 6 -2 0.5
v 6 -2 -2
v -6 -1 -2
v -6 -1 0.5
v -7 -1 -2
v -7 -1 0.5
v -7 -10 0.5
v -7 -10 -2
v -7 -2 -2
v -7 -2 0.5
v -10 -1 -2
v -10 -1 0.5
v -10 -2 0.5
v -10 -2 -2
v 10 -2 -2
v 10 -2 0.5
v -7 -9 -2
v -7 -9 0.5
v -8 -1 -2
v -8 -1 0.5
v -8 -9 0.5
v -8 -9 -2
v -8 -2 -2
v -8 -2 0.5
v 9 -3 -2
v 9 -3 0.5
v 6 -3 0.5
v 6 -3 -2
v -8 -3 -2
v -8 -3 0.5
v -10 -3 0.5
v -10 -3 -2
v 9 -3 -1.5
v 9 -4 -1.5
v 9 -4 0.5
v 8 -3 -1.5
v 8 -3 0.5
v 8 -4 0.5
v 8 -4 -1.5
v 8 -3 -2
v 8 -9 -2
v 8 -9 0.5
v -8 -3 -1.5
v -8 -4 -1.5
v -8 -4 0.5
v -9 -3 -1.5
v -9 -3 0.5
v -9 -4 0.5
v -9 -4 -1.5
v -9 -3 -2
v 9 -4 -2
v 8 -4 -2
v 8 -5 0.5
v 8 -5 -2
v -8 -4 -2
v -8 -5 -2
v -8 -5 0.5
v -9 -4 -2
v 9 -5 -2.5
v 9 -7 -2.5
v 9 -7 0.5
v 8 -5 -2.5
v 8 -7 0.5
v 8 -7 -2.5
v -8 -5 -2.5
v -8 -7 -2.5
v -8 -7 0.5
v -9 -5 -2.5
v -9 -7 0.5
v -9 -7 -2.5
v 10 -7 -2
v 10 -7 0.5
v 9 -7 -2
v 6 -7 -1.5
v 6 -7 0.5
v 5 -7 0.5
v 5 -7 -1.5
v 5 -6 -2
v 4 -6 -2
v 4 -6 0.5
v 4 -9 0.5
v 4 -9 -2
v 4 -6 -1.5
v 4 -7 -1.5
v 4 -7 0.5
v 3 -6 -1.5
v 3 -6 0.5
v 3 -7 0.5
v 3 -7 -1.5
v 3 -6 -2
v 3 -9 -2
v 3 -9 0.5
v 2 -6 -2
v 2 -6 0.5
v 2 -9 0.5
v 2 -9 -2
v 2 -6 -1.5
v 2 -8 -1.5
v 2 -8 0.5
v 1 -6 -1.5
v 1 -6 0.5
v 1 -8 0.5
v 1 -8 -1.5
v 1 -6 -2
v 1 -8 -2
v -1 -6 -2
v -1 -6 0.5
v -1 -8 0.5
v -1 -8 -2
v -1 -6 -1.5
v -1 -8 -1.5
v -2 -6 -1.5
v -2 -6 0.5
v -2 -8 0.5
v -2 -8 -1.5
v -2 -6 -2
v -2 -7 -2
v -2 -7 0.5
v -3 -6 -2
v -3 -6 0.5
v -3 -7 0.5
v -3 -7 -2
v -3 -6 -1.5
v -3 -8 -1.5
v -3 -8 0.5
v -4 -6 -1.5
v -4 -6 0.5
v -4 -8 0.5
v -4 -8 -1.5
v -4 -6 -2
v -4 -9 -2
v -4 -9 0.5
v -5 -6 -2
v -5 -7 -1.5
v -5 -7 0.5
v -6 -7 0.5
v -6 -7 -1.5
v -9 -7 -2
v -10 -7 0.5
v -10 -7 -2
v 10 -7 -1.5
v 10 -8 -1.5
v 10 -8 0.5
v 9 -7 -1.5
v 9 -8 0.5
v 9 -8 -1.5
v 9 -9 -2
v 9 -9 0.5
v 8 -7 -2
v 6 -7 -2
v 5 -7 -2
v 4 -8 -1.5
v 4 -8 0.5
v 3 -8 0.5
v 3 -8 -1.5
v -2 -8 -2
v -3 -8 -2
v -5 -7 -2
v -6 -7 -2
v -8 -7 -2
v -9 -9 0.5
v -9 -9 -2
v -9 -7 -1.5
v -9 -8 -1.5
v -9 -8 0.5
v -10 -7 -1.5
v -10 -8 0.5
v -10 -8 -1.5
v 10 -8 -2
v 10 -9 -2
v 10 -9 0.5
v 9 -8 -2
v 4 -8 -2
v 3 -8 -2
v 2 -8 -2
v 1 -9 0.5
v 1 -9 -2
v 1 -8 -2.5
v 1 -9 -2.5
v -1 -8 -2.5
v -1 -9 0.5
v -1 -9 -2.5
v -1 -9 -2
v -4 -8 -2
v -9 -8 -2
v -10 -8 -2
v -10 -9 0.5
v -10 -9 -2
v 10 -9 -1.5
v 10 -10 -1.5
v 10 -10 0.5
v 8 -9 -1.5
v 8 -10 0.5
v 8 -10 -1.5
v 8 -10 -2
v 7 -9 -2
v 7 -9 0.5
v 7 -10 0.5
v 7 -10 -2
v -8 -10 0.5
v -8 -10 -2
v -8 -9 -1.5
v -8 -10 -1.5
v -10 -9 -1.5
v -10 -10 0.5
v -10 -10 -1.5
v 10 -11 -1.5
v 10 -11 0.5
v 9 -10 -1.5
v 9 -10 0.5
v 9 -11 0.5
v 9 -11 -1.5
v 9 -10 -2
v 8 -15 0.5
v 8 -15 -2
v 8 -11 -2
v 8 -11 0.5
v 7 -11 0.5
v 7 -11 -2
v 7 -10 -1.5
v 7 -12 -1.5
v 7 -12 0.5
v 6 -10 -1.5
v 6 -12 0.5
v 6 -12 -1.5
v -6 -10 -1.5
v -6 -12 -1.5
v -6 -12 0.5
v -7 -10 -1.5
v -7 -12 0.5
v -7 -12 -1.5
v -7 -12 -2
v -9 -10 -2
v -9 -10 0.5
v -9 -12 0.5
v -9 -12 -2
v -9 -10 -1.5
v -9 -11 -1.5
v -9 -11 0.5
v -10 -11 0.5
v -10 -11 -1.5
v 10 -11 -2
v 9 -11 -2
v 8 -12 -2
v 8 -12 0.5
v 7 -12 -2
v -9 -11 -2
v -10 -11 -2
v 8 -12 -2.5
v 8 -13 -2.5
v 8 -13 0.5
v 7 -12 -2.5
v 7 -13 0.5
v 7 -13 -2.5
v 7 -15 -2
v 7 -15 0.5
v 6 -12 -2
v 6 -15 0.5
v 6 -15 -2
v -6 -12 -2
v -6 -15 -2
v -6 -15 0.5
v -7 -15 0.5
v -7 -15 -2
v -7 -12 -2.5
v -7 -13 -2.5
v -7 -13 0.5
v -8 -12 -2.5
v -8 -12 0.5
v -8 -13 0.5
v -8 -13 -2.5
v -8 -12 -2
v -8 -13 -2
v -9 -13 0.5
v -9 -13 -2
v 8 -13 -2
v 7 -13 -2
v -7 -13 -2
v -7 -14 -2
v -7 -14 0.5
v -8 -14 -2
v -8 -14 0.5
v -8 -15 0.5
v -8 -15 -2

vn 0 0 1
vn 0 0 -1
vn 0 1 0
vn 0 -1 0
vn -1 0 0
vn 0.7071068 -0.7071068 0
vn 0.7071068 0.7071068 0
vn 0.2588191 -0.9659259 0
vn 0.1305262 -0.9914449 0
vn 0.5 -0.8660254 0
vn 0.8660254 -0.5 0
vn 0.9659259 -0.2588191 0
vn 0.9914449 -0.1305262 0
vn 1 0 0
vn -0.2588191 0.9659259 0
vn -0.1305262 0.9914449 0
vn -0.8660254 0.5 0
vn -0.9659259 0.2588191 0
vn -0.7071068 0.7071068 0
vn -0.5 0.8660254 0
vn -0.9914449 0.1305262 0
vn -0.8660254 -0.5 0
vn -0.7071068 -0.7071068 0
vn -0.5 -0.8660254 0
vn -0.2588191 -0.9659259 0
vn -0.9914449 -0.1305262 0
vn -0.9659259 -0.2588191 0
vn -0.1305262 -0.9914449 0
vn 0.9659259 0.2588191 0
vn 0.8660254 0.5 0
vn 0.1305262 0.9914449 0
vn 0.2588191 0.9659259 0
vn 0.5 0.8660254 0
vn 0.9914449 0.1305262 0

vt 0.9375 0.0625
vt 0.8125 0.0625

usemtl b_ladder

f 3/1/1 2/1/1 1/1/1
f 2/1/1 3/1/1 4/1/1
f 2/1/1 4/1/1 5/1/1
f 8/1/2 7/1/2 6/1/2
f 7/1/2 8/1/2 9/1/2
f 9/1/2 8/1/2 10/1/2
f 8/1/3 5/1/3 10/1/3
f 5/1/3 8/1/3 2/1/3
f 1/1/4 7/1/4 3/1/4
f 7/1/4 1/1/4 6/1/4
f 1/1/5 8/1/5 6/1/5
f 8/1/5 1/1/5 2/1/5
f 5/1/6 9/1/6 10/1/6
f 9/1/6 5/1/6 4/1/6
f 9/1/7 3/1/7 7/1/7
f 3/1/7 9/1/7 4/1/7
f 13/1/9 12/1/8 11/1/8
f 11/1/8 15/1/10 14/1/10
f 14/1/10 17/1/6 16/1/6
f 17/1/6 18/1/11 16/1/6
f 17/1/6 14/1/10 15/1/10
f 15/1/10 11/1/8 12/1/8
f 12/1/8 13/1/9 19/1/9
f 22/1/12 21/1/11 20/1/12
f 13/1/5 23/1/5 19/1/5
f 23/1/5 13/1/5 24/1/5
f 23/1/3 26/1/3 25/1/3
f 26/1/3 23/1/3 24/1/3
f 23/1/2 12/1/2 19/1/2
f 12/1/2 23/1/2 15/1/2
f 15/1/2 23/1/2 17/1/2
f 17/1/2 23/1/2 21/1/2
f 21/1/2 23/1/2 20/1/2
f 20/1/2 23/1/2 25/1/2
f 26/1/13 20/1/12 25/1/13
f 20/1/12 26/1/13 22/1/12
f 21/1/11 22/1/12 18/1/11
f 18/1/11 17/1/6 21/1/11
f 11/1/1 24/1/1 13/1/1
f 24/1/1 11/1/1 14/1/1
f 24/1/1 14/1/1 16/1/1
f 24/1/1 16/1/1 18/1/1
f 24/1/1 18/1/1 22/1/1
f 24/1/1 22/1/1 26/1/1
f 29/1/2 28/1/2 27/1/2
f 29/1/2 27/1/2 30/1/2
f 29/1/2 30/1/2 31/1/2
f 29/1/2 31/1/2 32/1/2
f 34/1/2 29/1/2 33/1/2
f 29/1/2 34/1/2 28/1/2
f 36/1/4 29/1/4 35/1/4
f 29/1/4 36/1/4 33/1/4
f 37/1/14 29/1/14 32/1/14
f 29/1/14 37/1/14 35/1/14
f 33/1/16 38/1/15 34/1/15
f 38/1/15 33/1/16 36/1/16
f 39/1/17 31/1/18 30/1/17
f 31/1/18 39/1/17 40/1/18
f 41/1/19 30/1/17 27/1/19
f 30/1/17 41/1/19 39/1/17
f 28/1/20 41/1/19 27/1/19
f 41/1/19 28/1/20 42/1/20
f 34/1/15 42/1/20 28/1/20
f 42/1/20 34/1/15 38/1/15
f 40/1/18 32/1/21 31/1/18
f 32/1/21 40/1/18 37/1/21
f 35/1/1 38/1/1 36/1/1
f 38/1/1 35/1/1 42/1/1
f 42/1/1 35/1/1 41/1/1
f 41/1/1 35/1/1 39/1/1
f 39/1/1 35/1/1 40/1/1
f 40/1/1 35/1/1 37/1/1
f 45/1/1 44/1/1 43/1/1
f 44/1/1 45/1/1 46/1/1
f 46/1/1 45/1/1 47/1/1
f 47/1/1 45/1/1 48/1/1
f 48/1/1 45/1/1 49/1/1
f 49/1/1 45/1/1 50/1/1
f 46/1/22 52/1/23 51/1/22
f 52/1/23 46/1/22 47/1/23
f 55/1/2 54/1/2 53/1/2
f 54/1/2 55/1/2 51/1/2
f 54/1/2 51/1/2 52/1/2
f 54/1/2 52/1/2 56/1/2
f 54/1/2 56/1/2 57/1/2
f 54/1/2 57/1/2 58/1/2
f 45/1/14 53/1/14 54/1/14
f 53/1/14 45/1/14 43/1/14
f 58/1/3 45/1/3 54/1/3
f 45/1/3 58/1/3 50/1/3
f 48/1/24 52/1/23 47/1/23
f 52/1/23 48/1/24 56/1/24
f 49/1/25 56/1/24 48/1/24
f 56/1/24 49/1/25 57/1/25
f 43/1/26 55/1/27 53/1/26
f 55/1/27 43/1/26 44/1/27
f 44/1/27 51/1/22 55/1/27
f 51/1/22 44/1/27 46/1/22
f 50/1/28 57/1/25 49/1/25
f 57/1/25 50/1/28 58/1/28
f 61/1/4 60/1/4 59/1/4
f 60/1/4 61/1/4 62/1/4
f 65/1/29 64/1/30 63/1/29
f 62/1/2 66/1/2 60/1/2
f 66/1/2 62/1/2 67/1/2
f 67/1/2 62/1/2 68/1/2
f 68/1/2 62/1/2 64/1/2
f 64/1/2 62/1/2 63/1/2
f 63/1/2 62/1/2 69/1/2
f 61/1/5 69/1/5 62/1/5
f 69/1/5 61/1/5 70/1/5
f 66/1/32 59/1/31 60/1/31
f 67/1/33 71/1/32 66/1/32
f 68/1/7 72/1/33 67/1/33
f 68/1/7 74/1/30 73/1/7
f 72/1/33 68/1/7 73/1/7
f 71/1/32 67/1/33 72/1/33
f 59/1/31 66/1/32 71/1/32
f 70/1/34 63/1/29 69/1/34
f 63/1/29 70/1/34 65/1/29
f 64/1/30 65/1/29 74/1/30
f 74/1/30 68/1/7 64/1/30
f 61/1/1 65/1/1 70/1/1
f 65/1/1 61/1/1 74/1/1
f 74/1/1 61/1/1 73/1/1
f 73/1/1 61/1/1 72/1/1
f 72/1/1 61/1/1 71/1/1
f 71/1/1 61/1/1 59/1/1
f 77/1/2 76/1/2 75/1/2
f 76/1/2 77/1/2 78/1/2
f 78/1/2 77/1/2 79/1/2
f 79/1/2 77/1/2 80/1/2
f 80/1/2 77/1/2 81/1/2
f 81/1/2 77/1/2 82/1/2
f 83/1/12 75/1/13 76/1/12
f 75/1/13 83/1/12 84/1/13
f 85/1/11 76/1/12 78/1/11
f 76/1/12 85/1/11 83/1/12
f 87/1/6 80/1/10 86/1/10
f 80/1/10 87/1/6 79/1/6
f 87/1/6 78/1/11 79/1/6
f 78/1/11 87/1/6 85/1/11
f 84/1/5 77/1/5 75/1/5
f 77/1/5 84/1/5 88/1/5
f 77/1/3 89/1/3 82/1/3
f 89/1/3 77/1/3 88/1/3
f 90/1/8 82/1/9 89/1/9
f 82/1/9 90/1/8 81/1/8
f 86/1/10 81/1/8 90/1/8
f 81/1/8 86/1/10 80/1/10
f 83/1/1 88/1/1 84/1/1
f 88/1/1 83/1/1 85/1/1
f 88/1/1 85/1/1 87/1/1
f 88/1/1 87/1/1 86/1/1
f 88/1/1 86/1/1 90/1/1
f 88/1/1 90/1/1 89/1/1
f 93/1/1 92/1/1 91/1/1
f 92/1/1 93/1/1 94/1/1
f 92/1/1 94/1/1 95/1/1
f 98/1/2 97/1/2 96/1/2
f 97/1/2 98/1/2 99/1/2
f 99/1/2 98/1/2 100/1/2
f 91/1/4 97/1/4 93/1/4
f 97/1/4 91/1/4 96/1/4
f 91/1/19 98/1/19 96/1/19
f 98/1/19 91/1/19 92/1/19
f 100/1/3 94/1/3 99/1/3
f 94/1/3 100/1/3 95/1/3
f 94/1/14 97/1/14 99/1/14
f 97/1/14 94/1/14 93/1/14
f 98/1/23 95/1/23 100/1/23
f 95/1/23 98/1/23 92/1/23
f 103/1/23 102/1/24 101/1/24
f 102/1/24 103/1/23 104/1/23
f 107/1/22 106/1/27 105/1/22
f 110/1/26 109/1/27 108/1/26
f 113/1/25 112/1/28 111/1/28
f 112/1/28 113/1/25 114/1/25
f 110/1/3 116/1/3 115/1/3
f 116/1/3 110/1/3 108/1/3
f 116/1/14 112/1/14 115/1/14
f 112/1/14 116/1/14 111/1/14
f 114/1/2 115/1/2 112/1/2
f 115/1/2 114/1/2 102/1/2
f 115/1/2 102/1/2 104/1/2
f 115/1/2 104/1/2 105/1/2
f 115/1/2 105/1/2 106/1/2
f 115/1/2 106/1/2 110/1/2
f 101/1/24 114/1/25 113/1/25
f 114/1/25 101/1/24 102/1/24
f 103/1/23 105/1/22 104/1/23
f 105/1/22 103/1/23 107/1/22
f 106/1/27 107/1/22 109/1/27
f 109/1/27 110/1/26 106/1/27
f 116/1/1 113/1/1 111/1/1
f 113/1/1 116/1/1 101/1/1
f 101/1/1 116/1/1 103/1/1
f 103/1/1 116/1/1 107/1/1
f 107/1/1 116/1/1 109/1/1
f 109/1/1 116/1/1 108/1/1
f 118/1/14 10/1/14 117/1/14
f 10/1/14 118/1/14 5/1/14
f 119/1/3 118/1/3 117/1/3
f 118/1/3 119/1/3 120/1/3
f 2/1/4 10/1/4 5/1/4
f 10/1/4 2/1/4 8/1/4
f 2/1/5 119/1/5 8/1/5
f 119/1/5 2/1/5 120/1/5
f 119/1/2 10/1/2 8/1/2
f 10/1/2 119/1/2 117/1/2
f 118/1/1 2/1/1 5/1/1
f 2/1/1 118/1/1 120/1/1
f 120/1/14 121/1/14 119/1/14
f 121/1/14 120/1/14 122/1/14
f 123/1/3 120/1/3 119/1/3
f 120/1/3 123/1/3 124/1/3
f 125/1/4 121/1/4 122/1/4
f 121/1/4 125/1/4 126/1/4
f 125/1/5 123/1/5 126/1/5
f 123/1/5 125/1/5 124/1/5
f 123/1/2 121/1/2 126/1/2
f 121/1/2 123/1/2 119/1/2
f 120/1/1 125/1/1 122/1/1
f 125/1/1 120/1/1 124/1/1
f 128/1/14 75/1/14 127/1/14
f 75/1/14 128/1/14 84/1/14
f 129/1/3 128/1/3 127/1/3
f 128/1/3 129/1/3 130/1/3
f 131/1/4 75/1/4 84/1/4
f 75/1/4 131/1/4 132/1/4
f 131/1/5 129/1/5 132/1/5
f 129/1/5 131/1/5 130/1/5
f 129/1/2 75/1/2 132/1/2
f 75/1/2 129/1/2 127/1/2
f 128/1/1 131/1/1 84/1/1
f 131/1/1 128/1/1 130/1/1
f 130/1/14 133/1/14 129/1/14
f 133/1/14 130/1/14 134/1/14
f 135/1/3 130/1/3 129/1/3
f 130/1/3 135/1/3 136/1/3
f 137/1/4 133/1/4 134/1/4
f 133/1/4 137/1/4 138/1/4
f 137/1/5 135/1/5 138/1/5
f 135/1/5 137/1/5 136/1/5
f 135/1/2 133/1/2 138/1/2
f 133/1/2 135/1/2 129/1/2
f 130/1/1 137/1/1 134/1/1
f 137/1/1 130/1/1 136/1/1
f 118/1/14 139/1/14 117/1/14
f 139/1/14 118/1/14 140/1/14
f 123/1/3 118/1/3 117/1/3
f 118/1/3 123/1/3 124/1/3
f 125/1/4 139/1/4 140/1/4
f 139/1/4 125/1/4 126/1/4
f 125/1/5 123/1/5 126/1/5
f 123/1/5 125/1/5 124/1/5
f 123/1/2 139/1/2 126/1/2
f 139/1/2 123/1/2 117/1/2
f 118/1/1 125/1/1 140/1/1
f 125/1/1 118/1/1 124/1/1
f 130/1/14 141/1/14 129/1/14
f 141/1/14 130/1/14 142/1/14
f 143/1/3 130/1/3 129/1/3
f 130/1/3 143/1/3 144/1/3
f 145/1/4 141/1/4 142/1/4
f 141/1/4 145/1/4 146/1/4
f 145/1/5 143/1/5 146/1/5
f 143/1/5 145/1/5 144/1/5
f 143/1/2 141/1/2 146/1/2
f 141/1/2 143/1/2 129/1/2
f 130/1/1 145/1/1 142/1/1
f 145/1/1 130/1/1 144/1/1
f 144/1/14 147/1/14 143/1/14
f 147/1/14 144/1/14 148/1/14
f 135/1/3 144/1/3 143/1/3
f 144/1/3 135/1/3 136/1/3
f 137/1/4 147/1/4 148/1/4
f 147/1/4 137/1/4 138/1/4
f 137/1/5 135/1/5 138/1/5
f 135/1/5 137/1/5 136/1/5
f 135/1/2 147/1/2 138/1/2
f 147/1/2 135/1/2 143/1/2
f 144/1/1 137/1/1 148/1/1
f 137/1/1 144/1/1 136/1/1
f 122/1/14 149/1/14 121/1/14
f 149/1/14 122/1/14 150/1/14
f 126/1/3 122/1/3 121/1/3
f 122/1/3 126/1/3 125/1/3
f 151/1/4 149/1/4 150/1/4
f 149/1/4 151/1/4 152/1/4
f 151/1/5 126/1/5 152/1/5
f 126/1/5 151/1/5 125/1/5
f 126/1/2 149/1/2 152/1/2
f 149/1/2 126/1/2 121/1/2
f 122/1/1 151/1/1 150/1/1
f 151/1/1 122/1/1 125/1/1
f 148/1/14 153/1/14 147/1/14
f 153/1/14 148/1/14 154/1/14
f 138/1/3 148/1/3 147/1/3
f 148/1/3 138/1/3 137/1/3
f 155/1/4 153/1/4 154/1/4
f 153/1/4 155/1/4 156/1/4
f 155/1/5 138/1/5 156/1/5
f 138/1/5 155/1/5 137/1/5
f 138/1/2 153/1/2 156/1/2
f 153/1/2 138/1/2 147/1/2
f 148/1/1 155/1/1 154/1/1
f 155/1/1 148/1/1 137/1/1
f 150/1/14 158/1/14 157/1/14
f 158/1/14 150/1/14 159/1/14
f 160/1/3 150/1/3 157/1/3
f 150/1/3 160/1/3 161/1/3
f 162/1/4 158/1/4 159/1/4
f 158/1/4 162/1/4 163/1/4
f 162/1/5 160/1/5 163/1/5
f 160/1/5 162/1/5 161/1/5
f 160/1/2 158/1/2 163/1/2
f 158/1/2 160/1/2 157/1/2
f 150/1/1 162/1/1 159/1/1
f 162/1/1 150/1/1 161/1/1
f 161/1/14 165/1/14 164/1/14
f 165/1/14 161/1/14 166/1/14
f 152/1/3 161/1/3 164/1/3
f 161/1/3 152/1/3 151/1/3
f 45/1/4 165/1/4 166/1/4
f 165/1/4 45/1/4 54/1/4
f 45/1/5 152/1/5 54/1/5
f 152/1/5 45/1/5 151/1/5
f 152/1/2 165/1/2 54/1/2
f 165/1/2 152/1/2 164/1/2
f 161/1/1 45/1/1 166/1/1
f 45/1/1 161/1/1 151/1/1
f 154/1/14 168/1/14 167/1/14
f 168/1/14 154/1/14 169/1/14
f 170/1/3 154/1/3 167/1/3
f 154/1/3 170/1/3 171/1/3
f 172/1/4 168/1/4 169/1/4
f 168/1/4 172/1/4 173/1/4
f 172/1/5 170/1/5 173/1/5
f 170/1/5 172/1/5 171/1/5
f 170/1/2 168/1/2 173/1/2
f 168/1/2 170/1/2 167/1/2
f 154/1/1 172/1/1 169/1/1
f 172/1/1 154/1/1 171/1/1
f 171/1/14 99/1/14 174/1/14
f 99/1/14 171/1/14 94/1/14
f 156/1/3 171/1/3 174/1/3
f 171/1/3 156/1/3 155/1/3
f 95/1/4 99/1/4 94/1/4
f 99/1/4 95/1/4 100/1/4
f 95/1/5 156/1/5 100/1/5
f 156/1/5 95/1/5 155/1/5
f 156/1/2 99/1/2 100/1/2
f 99/1/2 156/1/2 174/1/2
f 171/1/1 95/1/1 94/1/1
f 95/1/1 171/1/1 155/1/1
f 159/1/14 8/1/14 175/1/14
f 8/1/14 159/1/14 2/1/14
f 176/1/3 159/1/3 175/1/3
f 159/1/3 176/1/3 162/1/3
f 177/1/4 8/1/4 2/1/4
f 8/1/4 177/1/4 178/1/4
f 177/1/5 176/1/5 178/1/5
f 176/1/5 177/1/5 162/1/5
f 176/1/2 8/1/2 178/1/2
f 8/1/2 176/1/2 175/1/2
f 159/1/1 177/1/1 2/1/1
f 177/1/1 159/1/1 162/1/1
f 169/1/14 180/1/14 179/1/14
f 180/1/14 169/1/14 181/1/14
f 182/1/3 169/1/3 179/1/3
f 169/1/3 182/1/3 172/1/3
f 94/1/4 180/1/4 181/1/4
f 180/1/4 94/1/4 99/1/4
f 94/1/5 182/1/5 99/1/5
f 182/1/5 94/1/5 172/1/5
f 182/1/2 180/1/2 99/1/2
f 180/1/2 182/1/2 179/1/2
f 169/1/1 94/1/1 181/1/1
f 94/1/1 169/1/1 172/1/1
f 2/1/14 184/1/14 183/1/14
f 184/1/14 2/1/14 185/1/14
f 186/1/3 2/1/3 183/1/3
f 2/1/3 186/1/3 177/1/3
f 187/1/4 184/1/4 185/1/4
f 184/1/4 187/1/4 188/1/4
f 187/1/5 186/1/5 188/1/5
f 186/1/5 187/1/5 177/1/5
f 186/1/2 184/1/2 188/1/2
f 184/1/2 186/1/2 183/1/2
f 2/1/1 187/1/1 185/1/1
f 187/1/1 2/1/1 177/1/1
f 181/1/14 190/1/14 189/1/14
f 190/1/14 181/1/14 191/1/14
f 192/1/3 181/1/3 189/1/3
f 181/1/3 192/1/3 94/1/3
f 193/1/4 190/1/4 191/1/4
f 190/1/4 193/1/4 194/1/4
f 193/1/5 192/1/5 194/1/5
f 192/1/5 193/1/5 94/1/5
f 192/1/2 190/1/2 194/1/2
f 190/1/2 192/1/2 189/1/2
f 181/1/1 193/1/1 191/1/1
f 193/1/1 181/1/1 94/1/1
f 3/1/14 195/1/14 7/1/14
f 195/1/14 3/1/14 196/1/14
f 6/1/3 3/1/3 7/1/3
f 3/1/3 6/1/3 1/1/3
f 185/1/4 195/1/4 196/1/4
f 195/1/4 185/1/4 197/1/4
f 185/1/5 6/1/5 197/1/5
f 6/1/5 185/1/5 1/1/5
f 6/1/2 195/1/2 197/1/2
f 195/1/2 6/1/2 7/1/2
f 3/1/1 185/1/1 196/1/1
f 185/1/1 3/1/1 1/1/1
f 35/1/14 198/1/14 29/1/14
f 198/1/14 35/1/14 199/1/14
f 33/1/3 35/1/3 29/1/3
f 35/1/3 33/1/3 36/1/3
f 200/1/4 198/1/4 199/1/4
f 198/1/4 200/1/4 201/1/4
f 200/1/5 33/1/5 201/1/5
f 33/1/5 200/1/5 36/1/5
f 33/1/2 198/1/2 201/1/2
f 198/1/2 33/1/2 29/1/2
f 35/1/1 200/1/1 199/1/1
f 200/1/1 35/1/1 36/1/1
f 36/1/14 58/1/14 202/1/14
f 58/1/14 36/1/14 50/1/14
f 203/1/3 36/1/3 202/1/3
f 36/1/3 203/1/3 204/1/3
f 205/1/4 58/1/4 50/1/4
f 58/1/4 205/1/4 206/1/4
f 205/1/5 203/1/5 206/1/5
f 203/1/5 205/1/5 204/1/5
f 203/1/2 58/1/2 206/1/2
f 58/1/2 203/1/2 202/1/2
f 36/1/1 205/1/1 50/1/1
f 205/1/1 36/1/1 204/1/1
f 204/1/14 208/1/14 207/1/14
f 208/1/14 204/1/14 209/1/14
f 210/1/3 204/1/3 207/1/3
f 204/1/3 210/1/3 211/1/3
f 212/1/4 208/1/4 209/1/4
f 208/1/4 212/1/4 213/1/4
f 212/1/5 210/1/5 213/1/5
f 210/1/5 212/1/5 211/1/5
f 210/1/2 208/1/2 213/1/2
f 208/1/2 210/1/2 207/1/2
f 204/1/1 212/1/1 209/1/1
f 212/1/1 204/1/1 211/1/1
f 211/1/14 215/1/14 214/1/14
f 215/1/14 211/1/14 216/1/14
f 217/1/3 211/1/3 214/1/3
f 211/1/3 217/1/3 218/1/3
f 219/1/4 215/1/4 216/1/4
f 215/1/4 219/1/4 220/1/4
f 219/1/5 217/1/5 220/1/5
f 217/1/5 219/1/5 218/1/5
f 217/1/2 215/1/2 220/1/2
f 215/1/2 217/1/2 214/1/2
f 211/1/1 219/1/1 216/1/1
f 219/1/1 211/1/1 218/1/1
f 218/1/14 222/1/14 221/1/14
f 222/1/14 218/1/14 223/1/14
f 224/1/3 218/1/3 221/1/3
f 218/1/3 224/1/3 225/1/3
f 226/1/4 222/1/4 223/1/4
f 222/1/4 226/1/4 227/1/4
f 226/1/5 224/1/5 227/1/5
f 224/1/5 226/1/5 225/1/5
f 224/1/2 222/1/2 227/1/2
f 222/1/2 224/1/2 221/1/2
f 218/1/1 226/1/1 223/1/1
f 226/1/1 218/1/1 225/1/1
f 225/1/14 229/1/14 228/1/14
f 229/1/14 225/1/14 226/1/14
f 230/1/3 225/1/3 228/1/3
f 225/1/3 230/1/3 231/1/3
f 232/1/4 229/1/4 226/1/4
f 229/1/4 232/1/4 233/1/4
f 232/1/5 230/1/5 233/1/5
f 230/1/5 232/1/5 231/1/5
f 230/1/2 229/1/2 233/1/2
f 229/1/2 230/1/2 228/1/2
f 225/1/1 232/1/1 226/1/1
f 232/1/1 225/1/1 231/1/1
f 231/1/14 235/1/14 234/1/14
f 235/1/14 231/1/14 232/1/14
f 236/1/3 231/1/3 234/1/3
f 231/1/3 236/1/3 237/1/3
f 238/1/4 235/1/4 232/1/4
f 235/1/4 238/1/4 239/1/4
f 238/1/5 236/1/5 239/1/5
f 236/1/5 238/1/5 237/1/5
f 236/1/2 235/1/2 239/1/2
f 235/1/2 236/1/2 234/1/2
f 231/1/1 238/1/1 232/1/1
f 238/1/1 231/1/1 237/1/1
f 237/1/14 241/1/14 240/1/14
f 241/1/14 237/1/14 242/1/14
f 243/1/3 237/1/3 240/1/3
f 237/1/3 243/1/3 244/1/3
f 245/1/4 241/1/4 242/1/4
f 241/1/4 245/1/4 246/1/4
f 245/1/5 243/1/5 246/1/5
f 243/1/5 245/1/5 244/1/5
f 243/1/2 241/1/2 246/1/2
f 241/1/2 243/1/2 240/1/2
f 237/1/1 245/1/1 242/1/1
f 245/1/1 237/1/1 244/1/1
f 244/2/14 248/2/14 247/2/14
f 248/2/14 244/2/14 249/2/14
f 250/2/3 244/2/3 247/2/3
f 244/2/3 250/2/3 251/2/3
f 252/2/4 248/2/4 249/2/4
f 248/2/4 252/2/4 253/2/4
f 252/2/5 250/2/5 253/2/5
f 250/2/5 252/2/5 251/2/5
f 250/2/2 248/2/2 253/2/2
f 248/2/2 250/2/2 247/2/2
f 244/2/1 252/2/1 249/2/1
f 252/2/1 244/2/1 251/2/1
f 251/1/14 255/1/14 254/1/14
f 255/1/14 251/1/14 256/1/14
f 257/1/3 251/1/3 254/1/3
f 251/1/3 257/1/3 59/1/3
f 89/1/4 255/1/4 256/1/4
f 255/1/4 89/1/4 82/1/4
f 89/1/5 257/1/5 82/1/5
f 257/1/5 89/1/5 59/1/5
f 257/1/2 255/1/2 82/1/2
f 255/1/2 257/1/2 254/1/2
f 251/1/1 89/1/1 256/1/1
f 89/1/1 251/1/1 59/1/1
f 59/1/14 258/1/14 60/1/14
f 258/1/14 59/1/14 259/1/14
f 62/1/3 59/1/3 60/1/3
f 59/1/3 62/1/3 61/1/3
f 260/1/4 258/1/4 259/1/4
f 258/1/4 260/1/4 261/1/4
f 260/1/5 62/1/5 261/1/5
f 62/1/5 260/1/5 61/1/5
f 62/1/2 258/1/2 261/1/2
f 258/1/2 62/1/2 60/1/2
f 59/1/1 260/1/1 259/1/1
f 260/1/1 59/1/1 61/1/1
f 93/1/14 262/1/14 97/1/14
f 262/1/14 93/1/14 193/1/14
f 96/1/3 93/1/3 97/1/3
f 93/1/3 96/1/3 91/1/3
f 263/1/4 262/1/4 193/1/4
f 262/1/4 263/1/4 264/1/4
f 263/1/5 96/1/5 264/1/5
f 96/1/5 263/1/5 91/1/5
f 96/1/2 262/1/2 264/1/2
f 262/1/2 96/1/2 97/1/2
f 93/1/1 263/1/1 193/1/1
f 263/1/1 93/1/1 91/1/1
f 196/1/14 266/1/14 265/1/14
f 266/1/14 196/1/14 267/1/14
f 268/1/3 196/1/3 265/1/3
f 196/1/3 268/1/3 185/1/3
f 269/1/4 266/1/4 267/1/4
f 266/1/4 269/1/4 270/1/4
f 269/1/5 268/1/5 270/1/5
f 268/1/5 269/1/5 185/1/5
f 268/1/2 266/1/2 270/1/2
f 266/1/2 268/1/2 265/1/2
f 196/1/1 269/1/1 267/1/1
f 269/1/1 196/1/1 185/1/1
f 185/1/14 271/1/14 197/1/14
f 271/1/14 185/1/14 272/1/14
f 273/1/3 185/1/3 197/1/3
f 185/1/3 273/1/3 187/1/3
f 166/1/4 271/1/4 272/1/4
f 271/1/4 166/1/4 165/1/4
f 166/1/5 273/1/5 165/1/5
f 273/1/5 166/1/5 187/1/5
f 273/1/2 271/1/2 165/1/2
f 271/1/2 273/1/2 197/1/2
f 185/1/1 166/1/1 272/1/1
f 166/1/1 185/1/1 187/1/1
f 199/1/14 54/1/14 274/1/14
f 54/1/14 199/1/14 45/1/14
f 275/1/3 199/1/3 274/1/3
f 199/1/3 275/1/3 200/1/3
f 50/1/4 54/1/4 45/1/4
f 54/1/4 50/1/4 58/1/4
f 50/1/5 275/1/5 58/1/5
f 275/1/5 50/1/5 200/1/5
f 275/1/2 54/1/2 58/1/2
f 54/1/2 275/1/2 274/1/2
f 199/1/1 50/1/1 45/1/1
f 50/1/1 199/1/1 200/1/1
f 209/2/14 276/2/14 208/2/14
f 276/2/14 209/2/14 277/2/14
f 213/2/3 209/2/3 208/2/3
f 209/2/3 213/2/3 212/2/3
f 278/2/4 276/2/4 277/2/4
f 276/2/4 278/2/4 279/2/4
f 278/2/5 213/2/5 279/2/5
f 213/2/5 278/2/5 212/2/5
f 213/2/2 276/2/2 279/2/2
f 276/2/2 213/2/2 208/2/2
f 209/2/1 278/2/1 277/2/1
f 278/2/1 209/2/1 212/2/1
f 242/2/14 280/2/14 241/2/14
f 280/2/14 242/2/14 238/2/14
f 246/2/3 242/2/3 241/2/3
f 242/2/3 246/2/3 245/2/3
f 249/2/4 280/2/4 238/2/4
f 280/2/4 249/2/4 281/2/4
f 249/2/5 246/2/5 281/2/5
f 246/2/5 249/2/5 245/2/5
f 246/2/2 280/2/2 281/2/2
f 280/2/2 246/2/2 241/2/2
f 242/2/1 249/2/1 238/2/1
f 249/2/1 242/2/1 245/2/1
f 259/1/14 82/1/14 282/1/14
f 82/1/14 259/1/14 89/1/14
f 283/1/3 259/1/3 282/1/3
f 259/1/3 283/1/3 260/1/3
f 88/1/4 82/1/4 89/1/4
f 82/1/4 88/1/4 77/1/4
f 88/1/5 283/1/5 77/1/5
f 283/1/5 88/1/5 260/1/5
f 283/1/2 82/1/2 77/1/2
f 82/1/2 283/1/2 282/1/2
f 259/1/1 88/1/1 89/1/1
f 88/1/1 259/1/1 260/1/1
f 191/1/14 146/1/14 284/1/14
f 146/1/14 191/1/14 145/1/14
f 262/1/3 191/1/3 284/1/3
f 191/1/3 262/1/3 193/1/3
f 285/1/4 146/1/4 145/1/4
f 146/1/4 285/1/4 286/1/4
f 285/1/5 262/1/5 286/1/5
f 262/1/5 285/1/5 193/1/5
f 262/1/2 146/1/2 286/1/2
f 146/1/2 262/1/2 284/1/2
f 191/1/1 285/1/1 145/1/1
f 285/1/1 191/1/1 193/1/1
f 193/1/14 288/1/14 287/1/14
f 288/1/14 193/1/14 289/1/14
f 290/1/3 193/1/3 287/1/3
f 193/1/3 290/1/3 263/1/3
f 291/1/4 288/1/4 289/1/4
f 288/1/4 291/1/4 292/1/4
f 291/1/5 290/1/5 292/1/5
f 290/1/5 291/1/5 263/1/5
f 290/1/2 288/1/2 292/1/2
f 288/1/2 290/1/2 287/1/2
f 193/1/1 291/1/1 289/1/1
f 291/1/1 193/1/1 263/1/1
f 267/1/14 294/1/14 293/1/14
f 294/1/14 267/1/14 295/1/14
f 296/1/3 267/1/3 293/1/3
f 267/1/3 296/1/3 269/1/3
f 272/1/4 294/1/4 295/1/4
f 294/1/4 272/1/4 271/1/4
f 272/1/5 296/1/5 271/1/5
f 296/1/5 272/1/5 269/1/5
f 296/1/2 294/1/2 271/1/2
f 294/1/2 296/1/2 293/1/2
f 267/1/1 272/1/1 295/1/1
f 272/1/1 267/1/1 269/1/1
f 277/1/14 206/1/14 297/1/14
f 206/1/14 277/1/14 205/1/14
f 298/1/3 277/1/3 297/1/3
f 277/1/3 298/1/3 278/1/3
f 216/1/4 206/1/4 205/1/4
f 206/1/4 216/1/4 215/1/4
f 216/1/5 298/1/5 215/1/5
f 298/1/5 216/1/5 278/1/5
f 298/1/2 206/1/2 215/1/2
f 206/1/2 298/1/2 297/1/2
f 277/1/1 216/1/1 205/1/1
f 216/1/1 277/1/1 278/1/1
f 223/1/14 220/1/14 299/1/14
f 220/1/14 223/1/14 219/1/14
f 229/1/3 223/1/3 299/1/3
f 223/1/3 229/1/3 226/1/3
f 300/1/4 220/1/4 219/1/4
f 220/1/4 300/1/4 301/1/4
f 300/1/5 229/1/5 301/1/5
f 229/1/5 300/1/5 226/1/5
f 229/1/2 220/1/2 301/1/2
f 220/1/2 229/1/2 299/1/2
f 223/1/1 300/1/1 219/1/1
f 300/1/1 223/1/1 226/1/1
f 226/1/14 303/1/14 302/1/14
f 303/1/14 226/1/14 300/1/14
f 304/1/3 226/1/3 302/1/3
f 226/1/3 304/1/3 232/1/3
f 305/1/4 303/1/4 300/1/4
f 303/1/4 305/1/4 306/1/4
f 305/1/5 304/1/5 306/1/5
f 304/1/5 305/1/5 232/1/5
f 304/1/2 303/1/2 306/1/2
f 303/1/2 304/1/2 302/1/2
f 226/1/1 305/1/1 300/1/1
f 305/1/1 226/1/1 232/1/1
f 232/1/14 307/1/14 233/1/14
f 307/1/14 232/1/14 305/1/14
f 308/1/3 232/1/3 233/1/3
f 232/1/3 308/1/3 252/1/3
f 256/1/4 307/1/4 305/1/4
f 307/1/4 256/1/4 255/1/4
f 256/1/5 308/1/5 255/1/5
f 308/1/5 256/1/5 252/1/5
f 308/1/2 307/1/2 255/1/2
f 307/1/2 308/1/2 233/1/2
f 232/1/1 256/1/1 305/1/1
f 256/1/1 232/1/1 252/1/1
f 289/1/14 286/1/14 309/1/14
f 286/1/14 289/1/14 285/1/14
f 310/1/3 289/1/3 309/1/3
f 289/1/3 310/1/3 291/1/3
f 311/1/4 286/1/4 285/1/4
f 286/1/4 311/1/4 312/1/4
f 311/1/5 310/1/5 312/1/5
f 310/1/5 311/1/5 291/1/5
f 310/1/2 286/1/2 312/1/2
f 286/1/2 310/1/2 309/1/2
f 289/1/1 311/1/1 285/1/1
f 311/1/1 289/1/1 291/1/1
f 295/2/14 314/2/14 313/2/14
f 314/2/14 295/2/14 315/2/14
f 316/2/3 295/2/3 313/2/3
f 295/2/3 316/2/3 166/2/3
f 317/2/4 314/2/4 315/2/4
f 314/2/4 317/2/4 318/2/4
f 317/2/5 316/2/5 318/2/5
f 316/2/5 317/2/5 166/2/5
f 316/2/2 314/2/2 318/2/2
f 314/2/2 316/2/2 313/2/2
f 295/2/1 317/2/1 315/2/1
f 317/2/1 295/2/1 166/2/1
f 166/2/14 319/2/14 165/2/14
f 319/2/14 166/2/14 317/2/14
f 320/2/3 166/2/3 165/2/3
f 166/2/3 320/2/3 321/2/3
f 322/2/4 319/2/4 317/2/4
f 319/2/4 322/2/4 323/2/4
f 322/2/5 320/2/5 323/2/5
f 320/2/5 322/2/5 321/2/5
f 320/2/2 319/2/2 323/2/2
f 319/2/2 320/2/2 165/2/2
f 166/2/1 322/2/1 317/2/1
f 322/2/1 166/2/1 321/2/1
f 321/1/14 323/1/14 320/1/14
f 323/1/14 321/1/14 322/1/14
f 54/1/3 321/1/3 320/1/3
f 321/1/3 54/1/3 45/1/3
f 43/1/4 323/1/4 322/1/4
f 323/1/4 43/1/4 53/1/4
f 43/1/5 54/1/5 53/1/5
f 54/1/5 43/1/5 45/1/5
f 54/1/2 323/1/2 53/1/2
f 323/1/2 54/1/2 320/1/2
f 321/1/1 43/1/1 322/1/1
f 43/1/1 321/1/1 45/1/1
f 142/2/14 132/2/14 141/2/14
f 132/2/14 142/2/14 131/2/14
f 146/2/3 142/2/3 141/2/3
f 142/2/3 146/2/3 145/2/3
f 324/2/4 132/2/4 131/2/4
f 132/2/4 324/2/4 325/2/4
f 324/2/5 146/2/5 325/2/5
f 146/2/5 324/2/5 145/2/5
f 146/2/2 132/2/2 325/2/2
f 132/2/2 146/2/2 141/2/2
f 142/2/1 324/2/1 131/2/1
f 324/2/1 142/2/1 145/2/1
f 145/2/14 327/2/14 326/2/14
f 327/2/14 145/2/14 324/2/14
f 328/2/3 145/2/3 326/2/3
f 145/2/3 328/2/3 311/2/3
f 329/2/4 327/2/4 324/2/4
f 327/2/4 329/2/4 330/2/4
f 329/2/5 328/2/5 330/2/5
f 328/2/5 329/2/5 311/2/5
f 328/2/2 327/2/2 330/2/2
f 327/2/2 328/2/2 326/2/2
f 145/2/1 329/2/1 324/2/1
f 329/2/1 145/2/1 311/2/1
f 315/1/14 331/1/14 314/1/14
f 331/1/14 315/1/14 332/1/14
f 333/1/3 315/1/3 314/1/3
f 315/1/3 333/1/3 334/1/3
f 335/1/4 331/1/4 332/1/4
f 331/1/4 335/1/4 336/1/4
f 335/1/5 333/1/5 336/1/5
f 333/1/5 335/1/5 334/1/5
f 333/1/2 331/1/2 336/1/2
f 331/1/2 333/1/2 314/1/2
f 315/1/1 335/1/1 332/1/1
f 335/1/1 315/1/1 334/1/1
f 334/1/14 19/1/14 337/1/14
f 19/1/14 334/1/14 13/1/14
f 319/1/3 334/1/3 337/1/3
f 334/1/3 319/1/3 317/1/3
f 338/1/4 19/1/4 13/1/4
f 19/1/4 338/1/4 339/1/4
f 338/1/5 319/1/5 339/1/5
f 319/1/5 338/1/5 317/1/5
f 319/1/2 19/1/2 339/1/2
f 19/1/2 319/1/2 337/1/2
f 334/1/1 338/1/1 13/1/1
f 338/1/1 334/1/1 317/1/1
f 317/1/14 340/1/14 319/1/14
f 340/1/14 317/1/14 341/1/14
f 323/1/3 317/1/3 319/1/3
f 317/1/3 323/1/3 322/1/3
f 342/1/4 340/1/4 341/1/4
f 340/1/4 342/1/4 343/1/4
f 342/1/5 323/1/5 343/1/5
f 323/1/5 342/1/5 322/1/5
f 323/1/2 340/1/2 343/1/2
f 340/1/2 323/1/2 319/1/2
f 317/1/1 342/1/1 341/1/1
f 342/1/1 317/1/1 322/1/1
f 322/1/14 345/1/14 344/1/14
f 345/1/14 322/1/14 346/1/14
f 347/1/3 322/1/3 344/1/3
f 322/1/3 347/1/3 43/1/3
f 348/1/4 345/1/4 346/1/4
f 345/1/4 348/1/4 349/1/4
f 348/1/5 347/1/5 349/1/5
f 347/1/5 348/1/5 43/1/5
f 347/1/2 345/1/2 349/1/2
f 345/1/2 347/1/2 344/1/2
f 322/1/1 348/1/1 346/1/1
f 348/1/1 322/1/1 43/1/1
f 84/1/14 351/1/14 350/1/14
f 351/1/14 84/1/14 352/1/14
f 353/1/3 84/1/3 350/1/3
f 84/1/3 353/1/3 131/1/3
f 354/1/4 351/1/4 352/1/4
f 351/1/4 354/1/4 355/1/4
f 354/1/5 353/1/5 355/1/5
f 353/1/5 354/1/5 131/1/5
f 353/1/2 351/1/2 355/1/2
f 351/1/2 353/1/2 350/1/2
f 84/1/1 354/1/1 352/1/1
f 354/1/1 84/1/1 131/1/1
f 131/1/14 356/1/14 132/1/14
f 356/1/14 131/1/14 354/1/14
f 357/1/3 131/1/3 132/1/3
f 131/1/3 357/1/3 358/1/3
f 359/1/4 356/1/4 354/1/4
f 356/1/4 359/1/4 360/1/4
f 359/1/5 357/1/5 360/1/5
f 357/1/5 359/1/5 358/1/5
f 357/1/2 356/1/2 360/1/2
f 356/1/2 357/1/2 132/1/2
f 131/1/1 359/1/1 354/1/1
f 359/1/1 131/1/1 358/1/1
f 358/1/14 362/1/14 361/1/14
f 362/1/14 358/1/14 363/1/14
f 330/1/3 358/1/3 361/1/3
f 358/1/3 330/1/3 329/1/3
f 364/1/4 362/1/4 363/1/4
f 362/1/4 364/1/4 365/1/4
f 364/1/5 330/1/5 365/1/5
f 330/1/5 364/1/5 329/1/5
f 330/1/2 362/1/2 365/1/2
f 362/1/2 330/1/2 361/1/2
f 358/1/1 364/1/1 363/1/1
f 364/1/1 358/1/1 329/1/1
f 332/1/14 25/1/14 366/1/14
f 25/1/14 332/1/14 26/1/14
f 367/1/3 332/1/3 366/1/3
f 332/1/3 367/1/3 335/1/3
f 24/1/4 25/1/4 26/1/4
f 25/1/4 24/1/4 23/1/4
f 24/1/5 367/1/5 23/1/5
f 367/1/5 24/1/5 335/1/5
f 367/1/2 25/1/2 23/1/2
f 25/1/2 367/1/2 366/1/2
f 332/1/1 24/1/1 26/1/1
f 24/1/1 332/1/1 335/1/1
f 341/1/14 368/1/14 340/1/14
f 368/1/14 341/1/14 369/1/14
f 343/1/3 341/1/3 340/1/3
f 341/1/3 343/1/3 342/1/3
f 346/1/4 368/1/4 369/1/4
f 368/1/4 346/1/4 370/1/4
f 346/1/5 343/1/5 370/1/5
f 343/1/5 346/1/5 342/1/5
f 343/1/2 368/1/2 370/1/2
f 368/1/2 343/1/2 340/1/2
f 341/1/1 346/1/1 369/1/1
f 346/1/1 341/1/1 342/1/1
f 363/1/14 115/1/14 371/1/14
f 115/1/14 363/1/14 116/1/14
f 372/1/3 363/1/3 371/1/3
f 363/1/3 372/1/3 364/1/3
f 108/1/4 115/1/4 116/1/4
f 115/1/4 108/1/4 110/1/4
f 108/1/5 372/1/5 110/1/5
f 372/1/5 108/1/5 364/1/5
f 372/1/2 115/1/2 110/1/2
f 115/1/2 372/1/2 371/1/2
f 363/1/1 108/1/1 116/1/1
f 108/1/1 363/1/1 364/1/1
f 369/1/14 374/1/14 373/1/14
f 374/1/14 369/1/14 375/1/14
f 376/1/3 369/1/3 373/1/3
f 369/1/3 376/1/3 346/1/3
f 377/1/4 374/1/4 375/1/4
f 374/1/4 377/1/4 378/1/4
f 377/1/5 376/1/5 378/1/5
f 376/1/5 377/1/5 346/1/5
f 376/1/2 374/1/2 378/1/2
f 374/1/2 376/1/2 373/1/2
f 369/1/1 377/1/1 375/1/1
f 377/1/1 369/1/1 346/1/1
f 346/1/14 379/1/14 370/1/14
f 379/1/14 346/1/14 380/1/14
f 381/1/3 346/1/3 370/1/3
f 346/1/3 381/1/3 348/1/3
f 382/1/4 379/1/4 380/1/4
f 379/1/4 382/1/4 383/1/4
f 382/1/5 381/1/5 383/1/5
f 381/1/5 382/1/5 348/1/5
f 381/1/2 379/1/2 383/1/2
f 379/1/2 381/1/2 370/1/2
f 346/1/1 382/1/1 380/1/1
f 382/1/1 346/1/1 348/1/1
f 352/1/14 385/1/14 384/1/14
f 385/1/14 352/1/14 386/1/14
f 356/1/3 352/1/3 384/1/3
f 352/1/3 356/1/3 354/1/3
f 387/1/4 385/1/4 386/1/4
f 385/1/4 387/1/4 388/1/4
f 387/1/5 356/1/5 388/1/5
f 356/1/5 387/1/5 354/1/5
f 356/1/2 385/1/2 388/1/2
f 385/1/2 356/1/2 384/1/2
f 352/1/1 387/1/1 386/1/1
f 387/1/1 352/1/1 354/1/1
f 354/1/14 390/1/14 389/1/14
f 390/1/14 354/1/14 391/1/14
f 392/1/3 354/1/3 389/1/3
f 354/1/3 392/1/3 393/1/3
f 394/1/4 390/1/4 391/1/4
f 390/1/4 394/1/4 395/1/4
f 394/1/5 392/1/5 395/1/5
f 392/1/5 394/1/5 393/1/5
f 392/1/2 390/1/2 395/1/2
f 390/1/2 392/1/2 389/1/2
f 354/1/1 394/1/1 391/1/1
f 394/1/1 354/1/1 393/1/1
f 393/2/14 397/2/14 396/2/14
f 397/2/14 393/2/14 394/2/14
f 360/2/3 393/2/3 396/2/3
f 393/2/3 360/2/3 359/2/3
f 398/2/4 397/2/4 394/2/4
f 397/2/4 398/2/4 399/2/4
f 398/2/5 360/2/5 399/2/5
f 360/2/5 398/2/5 359/2/5
f 360/2/2 397/2/2 399/2/2
f 397/2/2 360/2/2 396/2/2
f 393/2/1 398/2/1 394/2/1
f 398/2/1 393/2/1 359/2/1
f 375/1/14 339/1/14 400/1/14
f 339/1/14 375/1/14 338/1/14
f 401/1/3 375/1/3 400/1/3
f 375/1/3 401/1/3 377/1/3
f 380/1/4 339/1/4 338/1/4
f 339/1/4 380/1/4 379/1/4
f 380/1/5 401/1/5 379/1/5
f 401/1/5 380/1/5 377/1/5
f 401/1/2 339/1/2 379/1/2
f 339/1/2 401/1/2 400/1/2
f 375/1/1 380/1/1 338/1/1
f 380/1/1 375/1/1 377/1/1
f 391/1/14 403/1/14 402/1/14
f 403/1/14 391/1/14 404/1/14
f 399/1/3 391/1/3 402/1/3
f 391/1/3 399/1/3 398/1/3
f 116/1/4 403/1/4 404/1/4
f 403/1/4 116/1/4 115/1/4
f 116/1/5 399/1/5 115/1/5
f 399/1/5 116/1/5 398/1/5
f 399/1/2 403/1/2 115/1/2
f 403/1/2 399/1/2 402/1/2
f 391/1/1 116/1/1 404/1/1
f 116/1/1 391/1/1 398/1/1
f 404/2/14 388/2/14 403/2/14
f 388/2/14 404/2/14 387/2/14
f 405/2/3 404/2/3 403/2/3
f 404/2/3 405/2/3 406/2/3
f 407/2/4 388/2/4 387/2/4
f 388/2/4 407/2/4 408/2/4
f 407/2/5 405/2/5 408/2/5
f 405/2/5 407/2/5 406/2/5
f 405/2/2 388/2/2 408/2/2
f 388/2/2 405/2/2 403/2/2
f 404/2/1 407/2/1 387/2/1
f 407/2/1 404/2/1 406/2/1
f 406/1/14 408/1/14 405/1/14
f 408/1/14 406/1/14 407/1/14
f 115/1/3 406/1/3 405/1/3
f 406/1/3 115/1/3 116/1/3
f 111/1/4 408/1/4 407/1/4
f 408/1/4 111/1/4 112/1/4
f 111/1/5 115/1/5 112/1/5
f 115/1/5 111/1/5 116/1/5
f 115/1/2 408/1/2 112/1/2
f 408/1/2 115/1/2 405/1/2
f 406/1/1 111/1/1 407/1/1
f 111/1/1 406/1/1 116/1/1
f 144/1/14 147/1/14 143/1/14
f 147/1/14 144/1/14 148/1/14
f 135/1/3 144/1/3 143/1/3
f 144/1/3 135/1/3 136/1/3
f 137/1/4 147/1/4 148/1/4
f 147/1/4 137/1/4 138/1/4
f 137/1/5 135/1/5 138/1/5
f 135/1/5 137/1/5 136/1/5
f 135/1/2 147/1/2 138/1/2
f 147/1/2 135/1/2 143/1/2
f 144/1/1 137/1/1 148/1/1
f 137/1/1 144/1/1 136/1/1
f 317/1/14 340/1/14 319/1/14
f 340/1/14 317/1/14 341/1/14
f 323/1/3 317/1/3 319/1/3
f 317/1/3 323/1/3 322/1/3
f 342/1/4 340/1/4 341/1/4
f 340/1/4 342/1/4 343/1/4
f 342/1/5 323/1/5 343/1/5
f 323/1/5 342/1/5 322/1/5
f 323/1/2 340/1/2 343/1/2
f 340/1/2 323/1/2 319/1/2
f 317/1/1 342/1/1 341/1/1
f 342/1/1 317/1/1 322/1/1

