# Created by Kenney (www.kenney.nl)

mtllib mid_ladder.mtl

v 9.5 -8 -2
v 9.5 -8 0.5
v 9 -8 -2
v 9 -8 0.5
v 9.5 -9 0.5
v 9.5 -9 -2
v 9 -9 0.5
v 9 -9 -2
v 10 -8.5 0.5
v 10 -8.5 -2
v 5.707107 -5.707107 -2
v 5.5 -5.866025 -2
v 6 -6 -2
v 5.866025 -5.5 -2
v 5.965926 -5.258819 -2
v 6 -5 -2
v 5 -6 -2
v 5.258819 -5.965926 -2
v 6 -6 0.5
v 5 -6 0.5
v 6 -5 0.5
v 5.258819 -5.965926 0.5
v 5.866025 -5.5 0.5
v 5.965926 -5.258819 0.5
v 5.707107 -5.707107 0.5
v 5.5 -5.866025 0.5
v 6 -10 0.5
v 5.965926 -9.741181 0.5
v 6 -9 0.5
v 5.866025 -9.5 0.5
v 5.707107 -9.292893 0.5
v 5.5 -9.133975 0.5
v 5.258819 -9.034074 0.5
v 5 -9 0.5
v 5.866025 -9.5 -2
v 5.707107 -9.292893 -2
v 6 -10 -2
v 6 -9 -2
v 5.965926 -9.741181 -2
v 5.5 -9.133975 -2
v 5.258819 -9.034074 -2
v 5 -9 -2
v -5 -6 0.5
v -5 -6 -2
v -6 -6 0.5
v -6 -6 -2
v -5.965926 -5.258819 -2
v -5.866025 -5.5 -2
v -5.965926 -5.258819 0.5
v -5.258819 -5.965926 -2
v -5.5 -5.866025 -2
v -5.707107 -5.707107 -2
v -6 -5 -2
v -6 -5 0.5
v -5.258819 -5.965926 0.5
v -5.5 -5.866025 0.5
v -5.707107 -5.707107 0.5
v -5.866025 -5.5 0.5
v -6 -10 -2
v -5.965926 -9.741181 -2
v -6 -9 -2
v -5.866025 -9.5 -2
v -5.707107 -9.292893 -2
v -5.5 -9.133975 -2
v -5.258819 -9.034074 -2
v -5 -9 -2
v -5.965926 -9.741181 0.5
v -6 -10 0.5
v -5.866025 -9.5 0.5
v -5.5 -9.133975 0.5
v -5.707107 -9.292893 0.5
v -6 -9 0.5
v -5 -9 0.5
v -5.258819 -9.034074 0.5
v -9.5 -8 -2
v -10 -8.5 -2
v -9 -8 -2
v -9.5 -9 -2
v -9 -9 -2
v -9 -8 0.5
v -9 -9 0.5
v -9.5 -8 0.5
v -10 -8.5 0.5
v -9.5 -9 0.5
v 10 -1 -2
v 10 -7 -2
v 10 -1 0.5
v 10 -7 0.5
v 9 -1 -2
v 9 -1 0.5
v 9 -7 0.5
v 9 -7 -2
v 9 -2 -2
v 9 -2 0.5
v 6 -1 -2
v 6 -1 0.5
v 6 -2 0.5
v 6 -2 -2
v -6 -1 -2
v -6 -1 0.5
v -7 -1 -2
v -7 -1 0.5
v -7 -10 0.5
v -7 -10 -2
v -7 -2 -2
v -7 -2 0.5
v -10 -1 -2
v -10 -1 0.5
v -10 -2 0.5
v -10 -2 -2
v 10 -2 -2
v 10 -2 0.5
v -7 -9 -2
v -7 -9 0.5
v -8 -1 -2
v -8 -1 0.5
v -8 -9 0.5
v -8 -9 -2
v -8 -2 -2
v -8 -2 0.5
v 9 -3 -2
v 9 -3 0.5
v 6 -3 0.5
v 6 -3 -2
v -8 -3 -2
v -8 -3 0.5
v -10 -3 0.5
v -10 -3 -2
v 9 -3 -1.5
v 9 -4 -1.5
v 9 -4 0.5
v 8 -3 -1.5
v 8 -3 0.5
v 8 -4 0.5
v 8 -4 -1.5
v 8 -3 -2
v 8 -9 -2
v 8 -9 0.5
v -8 -3 -1.5
v -8 -4 -1.5
v -8 -4 0.5
v -9 -3 -1.5
v -9 -3 0.5
v -9 -4 0.5
v -9 -4 -1.5
v -9 -3 -2
v -9 -7 -2
v -9 -7 0.5
v -10 -7 0.5
v -10 -7 -2
v 9 -4 -2
v 9 -5 -2
v 9 -5 0.5
v 8 -4 -2
v 8 -5 0.5
v 8 -5 -2
v -8 -4 -2
v -8 -5 -2
v -8 -5 0.5
v -9 -4 -2
v -9 -5 0.5
v -9 -5 -2
v 9 -5 -2.5
v 9 -6 -2.5
v 9 -6 0.5
v 8 -5 -2.5
v 8 -6 0.5
v 8 -6 -2.5
v -8 -5 -2.5
v -8 -6 -2.5
v -8 -6 0.5
v -9 -5 -2.5
v -9 -6 0.5
v -9 -6 -2.5
v 9 -6 -1
v 9 -7 -1
v 8 -6 -1
v 8 -7 0.5
v 8 -7 -1
v 6 -6 -1.5
v 6 -7 -1.5
v 6 -7 0.5
v 5 -6 -1.5
v 5 -7 0.5
v 5 -7 -1.5
v 4 -6 -2
v 4 -6 0.5
v 4 -9 0.5
v 4 -9 -2
v 4 -7 -2
v 4 -7 0.5
v 3 -6 -2
v 3 -6 0.5
v 3 -7 0.5
v 3 -7 -2
v 3 -6 -1.5
v 3 -7 -1.5
v 1 -6 -1.5
v 1 -6 0.5
v 1 -7 0.5
v 1 -7 -1.5
v 1 -6 -2
v 1 -8 -2
v 1 -8 0.5
v -1 -6 -2
v -1 -6 0.5
v -1 -8 0.5
v -1 -8 -2
v -1 -6 -1.5
v -1 -7 -1.5
v -1 -7 0.5
v -3 -6 -1.5
v -3 -6 0.5
v -3 -7 0.5
v -3 -7 -1.5
v -3 -6 -2
v -3 -7 -2
v -4 -6 -2
v -4 -6 0.5
v -4 -7 0.5
v -4 -7 -2
v -4 -9 -2
v -4 -9 0.5
v -5 -6 -1.5
v -5 -7 -1.5
v -5 -7 0.5
v -6 -6 -1.5
v -6 -7 0.5
v -6 -7 -1.5
v -8 -6 -1
v -8 -7 -1
v -8 -7 0.5
v -9 -6 -1
v -9 -7 -1
v 10 -7 -1.5
v 10 -8 -1.5
v 10 -8 0.5
v 9 -7 -1.5
v 9 -8 -1.5
v 8 -7 -2
v 6 -7 -2
v 5 -7 -2
v 4 -7 -1.5
v 4 -8 -1.5
v 4 -8 0.5
v 3 -8 0.5
v 3 -8 -1.5
v 3 -9 -2
v 3 -9 0.5
v 1 -7 -2
v 1 -9 0.5
v 1 -9 -2
v -1 -7 -2
v -1 -9 -2
v -1 -9 0.5
v -2 -7 -2
v -2 -7 0.5
v -2 -9 0.5
v -2 -9 -2
v -2 -8 -2
v -2 -8 0.5
v -3 -8 0.5
v -3 -8 -2
v -3 -8 -1.5
v -4 -7 -1.5
v -4 -8 0.5
v -4 -8 -1.5
v -5 -7 -2
v -6 -7 -2
v -8 -7 -2
v -9 -7 -1.5
v -9 -8 -1.5
v -10 -7 -1.5
v -10 -8 0.5
v -10 -8 -1.5
v 4 -8 -2
v 3 -8 -2
v 1 -8 -2.5
v 1 -9 -2.5
v -1 -8 -2.5
v -1 -9 -2.5
v -4 -8 -2
v 10 -9 -1.5
v 10 -10 -1.5
v 10 -9 0.5
v 10 -10 0.5
v 8 -9 -1.5
v 8 -10 0.5
v 8 -10 -1.5
v 8 -10 -2
v 7 -9 -2
v 7 -9 0.5
v 7 -10 0.5
v 7 -10 -2
v -8 -10 0.5
v -8 -10 -2
v -8 -9 -1.5
v -8 -10 -1.5
v -10 -9 -1.5
v -10 -9 0.5
v -10 -10 0.5
v -10 -10 -1.5
v 10 -11 -1.5
v 10 -11 0.5
v 9 -10 -1.5
v 9 -10 0.5
v 9 -11 0.5
v 9 -11 -1.5
v 9 -10 -2
v 9 -15 -2
v 9 -15 0.5
v 8 -15 0.5
v 8 -15 -2
v 8 -11 -2
v 8 -11 0.5
v 7 -11 0.5
v 7 -11 -2
v 7 -10 -1.5
v 7 -12 -1.5
v 7 -12 0.5
v 6 -10 -1.5
v 6 -12 0.5
v 6 -12 -1.5
v -6 -10 -1.5
v -6 -12 -1.5
v -6 -12 0.5
v -7 -10 -1.5
v -7 -12 0.5
v -7 -12 -1.5
v -7 -12 -2
v -9 -10 -2
v -9 -10 0.5
v -9 -12 0.5
v -9 -12 -2
v -9 -10 -1.5
v -9 -11 -1.5
v -9 -11 0.5
v -10 -11 0.5
v -10 -11 -1.5
v 10 -11 -2
v 10 -15 -2
v 10 -15 0.5
v 9 -11 -2
v 8 -12 -2
v 8 -12 0.5
v 7 -12 -2
v -9 -11 -2
v -9 -15 -2
v -9 -15 0.5
v -10 -11 -2
v -10 -15 0.5
v -10 -15 -2
v 8 -12 -2.5
v 8 -13 -2.5
v 8 -13 0.5
v 7 -12 -2.5
v 7 -13 0.5
v 7 -13 -2.5
v 7 -15 -2
v 7 -15 0.5
v 6 -12 -2
v 6 -15 0.5
v 6 -15 -2
v -6 -12 -2
v -6 -15 -2
v -6 -15 0.5
v -7 -15 0.5
v -7 -15 -2
v -7 -12 -2.5
v -7 -13 -2.5
v -7 -13 0.5
v -8 -12 -2.5
v -8 -12 0.5
v -8 -13 0.5
v -8 -13 -2.5
v -8 -12 -2
v -8 -13 -2
v -9 -13 0.5
v -9 -13 -2
v 8 -13 -2
v 7 -13 -2
v -7 -13 -2
v -7 -14 -2
v -7 -14 0.5
v -9 -14 0.5
v -9 -14 -2
v -8 -14 -2
v -8 -14 0.5
v -8 -15 0.5
v -8 -15 -2

vn 0 1 0
vn 0 -1 0
vn -1 0 0
vn 0.7071068 -0.7071068 0
vn 0.7071068 0.7071068 0
vn 0 0 -1
vn 0 0 1
vn 1 0 0
vn -0.2588191 0.9659259 0
vn -0.1305262 0.9914449 0
vn -0.8660254 0.5 0
vn -0.9659259 0.2588191 0
vn -0.7071068 0.7071068 0
vn -0.5 0.8660254 0
vn -0.9914449 0.1305262 0
vn -0.8660254 -0.5 0
vn -0.7071068 -0.7071068 0
vn -0.5 -0.8660254 0
vn -0.2588191 -0.9659259 0
vn -0.9914449 -0.1305262 0
vn -0.9659259 -0.2588191 0
vn -0.1305262 -0.9914449 0
vn 0.9659259 0.2588191 0
vn 0.8660254 0.5 0
vn 0.1305262 0.9914449 0
vn 0.2588191 0.9659259 0
vn 0.5 0.8660254 0
vn 0.9914449 0.1305262 0
vn 0.9659259 -0.2588191 0
vn 0.9914449 -0.1305262 0
vn 0.8660254 -0.5 0
vn 0.5 -0.8660254 0
vn 0.1305262 -0.9914449 0
vn 0.2588191 -0.9659259 0

vt 0.9375 0.0625
vt 0.8125 0.0625

usemtl mid_ladder

f 3/1/1 2/1/1 1/1/1
f 2/1/1 3/1/1 4/1/1
f 7/1/2 6/1/2 5/1/2
f 6/1/2 7/1/2 8/1/2
f 7/1/3 3/1/3 8/1/3
f 3/1/3 7/1/3 4/1/3
f 5/1/4 10/1/4 9/1/4
f 10/1/4 5/1/4 6/1/4
f 1/1/5 9/1/5 10/1/5
f 9/1/5 1/1/5 2/1/5
f 3/1/6 6/1/6 8/1/6
f 6/1/6 3/1/6 10/1/6
f 10/1/6 3/1/6 1/1/6
f 5/1/7 4/1/7 7/1/7
f 4/1/7 5/1/7 9/1/7
f 4/1/7 9/1/7 2/1/7
f 13/1/6 12/1/6 11/1/6
f 13/1/6 11/1/6 14/1/6
f 13/1/6 14/1/6 15/1/6
f 13/1/6 15/1/6 16/1/6
f 18/1/6 13/1/6 17/1/6
f 13/1/6 18/1/6 12/1/6
f 20/1/2 13/1/2 19/1/2
f 13/1/2 20/1/2 17/1/2
f 21/1/8 13/1/8 16/1/8
f 13/1/8 21/1/8 19/1/8
f 17/1/10 22/1/9 18/1/9
f 22/1/9 17/1/10 20/1/10
f 23/1/11 15/1/12 14/1/11
f 15/1/12 23/1/11 24/1/12
f 25/1/13 14/1/11 11/1/13
f 14/1/11 25/1/13 23/1/11
f 12/1/14 25/1/13 11/1/13
f 25/1/13 12/1/14 26/1/14
f 18/1/9 26/1/14 12/1/14
f 26/1/14 18/1/9 22/1/9
f 24/1/12 16/1/15 15/1/12
f 16/1/15 24/1/12 21/1/15
f 19/1/7 22/1/7 20/1/7
f 22/1/7 19/1/7 26/1/7
f 26/1/7 19/1/7 25/1/7
f 25/1/7 19/1/7 23/1/7
f 23/1/7 19/1/7 24/1/7
f 24/1/7 19/1/7 21/1/7
f 29/1/7 28/1/7 27/1/7
f 28/1/7 29/1/7 30/1/7
f 30/1/7 29/1/7 31/1/7
f 31/1/7 29/1/7 32/1/7
f 32/1/7 29/1/7 33/1/7
f 33/1/7 29/1/7 34/1/7
f 30/1/16 36/1/17 35/1/16
f 36/1/17 30/1/16 31/1/17
f 39/1/6 38/1/6 37/1/6
f 38/1/6 39/1/6 35/1/6
f 38/1/6 35/1/6 36/1/6
f 38/1/6 36/1/6 40/1/6
f 38/1/6 40/1/6 41/1/6
f 38/1/6 41/1/6 42/1/6
f 29/1/8 37/1/8 38/1/8
f 37/1/8 29/1/8 27/1/8
f 42/1/1 29/1/1 38/1/1
f 29/1/1 42/1/1 34/1/1
f 32/1/18 36/1/17 31/1/17
f 36/1/17 32/1/18 40/1/18
f 33/1/19 40/1/18 32/1/18
f 40/1/18 33/1/19 41/1/19
f 27/1/20 39/1/21 37/1/20
f 39/1/21 27/1/20 28/1/21
f 28/1/21 35/1/16 39/1/21
f 35/1/16 28/1/21 30/1/16
f 34/1/22 41/1/19 33/1/19
f 41/1/19 34/1/22 42/1/22
f 45/1/2 44/1/2 43/1/2
f 44/1/2 45/1/2 46/1/2
f 49/1/23 48/1/24 47/1/23
f 46/1/6 50/1/6 44/1/6
f 50/1/6 46/1/6 51/1/6
f 51/1/6 46/1/6 52/1/6
f 52/1/6 46/1/6 48/1/6
f 48/1/6 46/1/6 47/1/6
f 47/1/6 46/1/6 53/1/6
f 45/1/3 53/1/3 46/1/3
f 53/1/3 45/1/3 54/1/3
f 50/1/26 43/1/25 44/1/25
f 51/1/27 55/1/26 50/1/26
f 52/1/5 56/1/27 51/1/27
f 52/1/5 58/1/24 57/1/5
f 56/1/27 52/1/5 57/1/5
f 55/1/26 51/1/27 56/1/27
f 43/1/25 50/1/26 55/1/26
f 54/1/28 47/1/23 53/1/28
f 47/1/23 54/1/28 49/1/23
f 48/1/24 49/1/23 58/1/24
f 58/1/24 52/1/5 48/1/24
f 45/1/7 49/1/7 54/1/7
f 49/1/7 45/1/7 58/1/7
f 58/1/7 45/1/7 57/1/7
f 57/1/7 45/1/7 56/1/7
f 56/1/7 45/1/7 55/1/7
f 55/1/7 45/1/7 43/1/7
f 61/1/6 60/1/6 59/1/6
f 60/1/6 61/1/6 62/1/6
f 62/1/6 61/1/6 63/1/6
f 63/1/6 61/1/6 64/1/6
f 64/1/6 61/1/6 65/1/6
f 65/1/6 61/1/6 66/1/6
f 67/1/29 59/1/30 60/1/29
f 59/1/30 67/1/29 68/1/30
f 69/1/31 60/1/29 62/1/31
f 60/1/29 69/1/31 67/1/29
f 71/1/4 64/1/32 70/1/32
f 64/1/32 71/1/4 63/1/4
f 71/1/4 62/1/31 63/1/4
f 62/1/31 71/1/4 69/1/31
f 68/1/3 61/1/3 59/1/3
f 61/1/3 68/1/3 72/1/3
f 61/1/1 73/1/1 66/1/1
f 73/1/1 61/1/1 72/1/1
f 74/1/34 66/1/33 73/1/33
f 66/1/33 74/1/34 65/1/34
f 70/1/32 65/1/34 74/1/34
f 65/1/34 70/1/32 64/1/32
f 67/1/7 72/1/7 68/1/7
f 72/1/7 67/1/7 69/1/7
f 72/1/7 69/1/7 71/1/7
f 72/1/7 71/1/7 70/1/7
f 72/1/7 70/1/7 74/1/7
f 72/1/7 74/1/7 73/1/7
f 77/1/6 76/1/6 75/1/6
f 76/1/6 79/1/6 78/1/6
f 79/1/6 76/1/6 77/1/6
f 80/1/8 79/1/8 77/1/8
f 79/1/8 80/1/8 81/1/8
f 76/1/13 82/1/13 75/1/13
f 82/1/13 76/1/13 83/1/13
f 83/1/17 78/1/17 84/1/17
f 78/1/17 83/1/17 76/1/17
f 84/1/2 79/1/2 81/1/2
f 79/1/2 84/1/2 78/1/2
f 75/1/1 80/1/1 77/1/1
f 80/1/1 75/1/1 82/1/1
f 81/1/7 83/1/7 84/1/7
f 83/1/7 81/1/7 80/1/7
f 83/1/7 80/1/7 82/1/7
f 87/1/8 86/1/8 85/1/8
f 86/1/8 87/1/8 88/1/8
f 89/1/1 87/1/1 85/1/1
f 87/1/1 89/1/1 90/1/1
f 91/1/2 86/1/2 88/1/2
f 86/1/2 91/1/2 92/1/2
f 91/1/3 89/1/3 92/1/3
f 89/1/3 91/1/3 90/1/3
f 89/1/6 86/1/6 92/1/6
f 86/1/6 89/1/6 85/1/6
f 87/1/7 91/1/7 88/1/7
f 91/1/7 87/1/7 90/1/7
f 90/1/8 93/1/8 89/1/8
f 93/1/8 90/1/8 94/1/8
f 95/1/1 90/1/1 89/1/1
f 90/1/1 95/1/1 96/1/1
f 97/1/2 93/1/2 94/1/2
f 93/1/2 97/1/2 98/1/2
f 97/1/3 95/1/3 98/1/3
f 95/1/3 97/1/3 96/1/3
f 95/1/6 93/1/6 98/1/6
f 93/1/6 95/1/6 89/1/6
f 90/1/7 97/1/7 94/1/7
f 97/1/7 90/1/7 96/1/7
f 100/1/8 59/1/8 99/1/8
f 59/1/8 100/1/8 68/1/8
f 101/1/1 100/1/1 99/1/1
f 100/1/1 101/1/1 102/1/1
f 103/1/2 59/1/2 68/1/2
f 59/1/2 103/1/2 104/1/2
f 103/1/3 101/1/3 104/1/3
f 101/1/3 103/1/3 102/1/3
f 101/1/6 59/1/6 104/1/6
f 59/1/6 101/1/6 99/1/6
f 100/1/7 103/1/7 68/1/7
f 103/1/7 100/1/7 102/1/7
f 102/1/8 105/1/8 101/1/8
f 105/1/8 102/1/8 106/1/8
f 107/1/1 102/1/1 101/1/1
f 102/1/1 107/1/1 108/1/1
f 109/1/2 105/1/2 106/1/2
f 105/1/2 109/1/2 110/1/2
f 109/1/3 107/1/3 110/1/3
f 107/1/3 109/1/3 108/1/3
f 107/1/6 105/1/6 110/1/6
f 105/1/6 107/1/6 101/1/6
f 102/1/7 109/1/7 106/1/7
f 109/1/7 102/1/7 108/1/7
f 87/1/8 111/1/8 85/1/8
f 111/1/8 87/1/8 112/1/8
f 95/1/1 87/1/1 85/1/1
f 87/1/1 95/1/1 96/1/1
f 97/1/2 111/1/2 112/1/2
f 111/1/2 97/1/2 98/1/2
f 97/1/3 95/1/3 98/1/3
f 95/1/3 97/1/3 96/1/3
f 95/1/6 111/1/6 98/1/6
f 111/1/6 95/1/6 85/1/6
f 87/1/7 97/1/7 112/1/7
f 97/1/7 87/1/7 96/1/7
f 102/1/8 113/1/8 101/1/8
f 113/1/8 102/1/8 114/1/8
f 115/1/1 102/1/1 101/1/1
f 102/1/1 115/1/1 116/1/1
f 117/1/2 113/1/2 114/1/2
f 113/1/2 117/1/2 118/1/2
f 117/1/3 115/1/3 118/1/3
f 115/1/3 117/1/3 116/1/3
f 115/1/6 113/1/6 118/1/6
f 113/1/6 115/1/6 101/1/6
f 102/1/7 117/1/7 114/1/7
f 117/1/7 102/1/7 116/1/7
f 116/1/8 119/1/8 115/1/8
f 119/1/8 116/1/8 120/1/8
f 107/1/1 116/1/1 115/1/1
f 116/1/1 107/1/1 108/1/1
f 109/1/2 119/1/2 120/1/2
f 119/1/2 109/1/2 110/1/2
f 109/1/3 107/1/3 110/1/3
f 107/1/3 109/1/3 108/1/3
f 107/1/6 119/1/6 110/1/6
f 119/1/6 107/1/6 115/1/6
f 116/1/7 109/1/7 120/1/7
f 109/1/7 116/1/7 108/1/7
f 94/1/8 121/1/8 93/1/8
f 121/1/8 94/1/8 122/1/8
f 98/1/1 94/1/1 93/1/1
f 94/1/1 98/1/1 97/1/1
f 123/1/2 121/1/2 122/1/2
f 121/1/2 123/1/2 124/1/2
f 123/1/3 98/1/3 124/1/3
f 98/1/3 123/1/3 97/1/3
f 98/1/6 121/1/6 124/1/6
f 121/1/6 98/1/6 93/1/6
f 94/1/7 123/1/7 122/1/7
f 123/1/7 94/1/7 97/1/7
f 120/1/8 125/1/8 119/1/8
f 125/1/8 120/1/8 126/1/8
f 110/1/1 120/1/1 119/1/1
f 120/1/1 110/1/1 109/1/1
f 127/1/2 125/1/2 126/1/2
f 125/1/2 127/1/2 128/1/2
f 127/1/3 110/1/3 128/1/3
f 110/1/3 127/1/3 109/1/3
f 110/1/6 125/1/6 128/1/6
f 125/1/6 110/1/6 119/1/6
f 120/1/7 127/1/7 126/1/7
f 127/1/7 120/1/7 109/1/7
f 122/1/8 130/1/8 129/1/8
f 130/1/8 122/1/8 131/1/8
f 132/1/1 122/1/1 129/1/1
f 122/1/1 132/1/1 133/1/1
f 134/1/2 130/1/2 131/1/2
f 130/1/2 134/1/2 135/1/2
f 134/1/3 132/1/3 135/1/3
f 132/1/3 134/1/3 133/1/3
f 132/1/6 130/1/6 135/1/6
f 130/1/6 132/1/6 129/1/6
f 122/1/7 134/1/7 131/1/7
f 134/1/7 122/1/7 133/1/7
f 133/1/8 137/1/8 136/1/8
f 137/1/8 133/1/8 138/1/8
f 124/1/1 133/1/1 136/1/1
f 133/1/1 124/1/1 123/1/1
f 29/1/2 137/1/2 138/1/2
f 137/1/2 29/1/2 38/1/2
f 29/1/3 124/1/3 38/1/3
f 124/1/3 29/1/3 123/1/3
f 124/1/6 137/1/6 38/1/6
f 137/1/6 124/1/6 136/1/6
f 133/1/7 29/1/7 138/1/7
f 29/1/7 133/1/7 123/1/7
f 126/1/8 140/1/8 139/1/8
f 140/1/8 126/1/8 141/1/8
f 142/1/1 126/1/1 139/1/1
f 126/1/1 142/1/1 143/1/1
f 144/1/2 140/1/2 141/1/2
f 140/1/2 144/1/2 145/1/2
f 144/1/3 142/1/3 145/1/3
f 142/1/3 144/1/3 143/1/3
f 142/1/6 140/1/6 145/1/6
f 140/1/6 142/1/6 139/1/6
f 126/1/7 144/1/7 141/1/7
f 144/1/7 126/1/7 143/1/7
f 143/1/8 147/1/8 146/1/8
f 147/1/8 143/1/8 148/1/8
f 128/1/1 143/1/1 146/1/1
f 143/1/1 128/1/1 127/1/1
f 149/1/2 147/1/2 148/1/2
f 147/1/2 149/1/2 150/1/2
f 149/1/3 128/1/3 150/1/3
f 128/1/3 149/1/3 127/1/3
f 128/1/6 147/1/6 150/1/6
f 147/1/6 128/1/6 146/1/6
f 143/1/7 149/1/7 148/1/7
f 149/1/7 143/1/7 127/1/7
f 131/1/8 152/1/8 151/1/8
f 152/1/8 131/1/8 153/1/8
f 154/1/1 131/1/1 151/1/1
f 131/1/1 154/1/1 134/1/1
f 155/1/2 152/1/2 153/1/2
f 152/1/2 155/1/2 156/1/2
f 155/1/3 154/1/3 156/1/3
f 154/1/3 155/1/3 134/1/3
f 154/1/6 152/1/6 156/1/6
f 152/1/6 154/1/6 151/1/6
f 131/1/7 155/1/7 153/1/7
f 155/1/7 131/1/7 134/1/7
f 141/1/8 158/1/8 157/1/8
f 158/1/8 141/1/8 159/1/8
f 160/1/1 141/1/1 157/1/1
f 141/1/1 160/1/1 144/1/1
f 161/1/2 158/1/2 159/1/2
f 158/1/2 161/1/2 162/1/2
f 161/1/3 160/1/3 162/1/3
f 160/1/3 161/1/3 144/1/3
f 160/1/6 158/1/6 162/1/6
f 158/1/6 160/1/6 157/1/6
f 141/1/7 161/1/7 159/1/7
f 161/1/7 141/1/7 144/1/7
f 153/1/8 164/1/8 163/1/8
f 164/1/8 153/1/8 165/1/8
f 166/1/1 153/1/1 163/1/1
f 153/1/1 166/1/1 155/1/1
f 167/1/2 164/1/2 165/1/2
f 164/1/2 167/1/2 168/1/2
f 167/1/3 166/1/3 168/1/3
f 166/1/3 167/1/3 155/1/3
f 166/1/6 164/1/6 168/1/6
f 164/1/6 166/1/6 163/1/6
f 153/1/7 167/1/7 165/1/7
f 167/1/7 153/1/7 155/1/7
f 159/1/8 170/1/8 169/1/8
f 170/1/8 159/1/8 171/1/8
f 172/1/1 159/1/1 169/1/1
f 159/1/1 172/1/1 161/1/1
f 173/1/2 170/1/2 171/1/2
f 170/1/2 173/1/2 174/1/2
f 173/1/3 172/1/3 174/1/3
f 172/1/3 173/1/3 161/1/3
f 172/1/6 170/1/6 174/1/6
f 170/1/6 172/1/6 169/1/6
f 159/1/7 173/1/7 171/1/7
f 173/1/7 159/1/7 161/1/7
f 165/1/8 176/1/8 175/1/8
f 176/1/8 165/1/8 91/1/8
f 177/1/1 165/1/1 175/1/1
f 165/1/1 177/1/1 167/1/1
f 178/1/2 176/1/2 91/1/2
f 176/1/2 178/1/2 179/1/2
f 178/1/3 177/1/3 179/1/3
f 177/1/3 178/1/3 167/1/3
f 177/1/6 176/1/6 179/1/6
f 176/1/6 177/1/6 175/1/6
f 165/1/7 178/1/7 91/1/7
f 178/1/7 165/1/7 167/1/7
f 19/1/8 181/1/8 180/1/8
f 181/1/8 19/1/8 182/1/8
f 183/1/1 19/1/1 180/1/1
f 19/1/1 183/1/1 20/1/1
f 184/1/2 181/1/2 182/1/2
f 181/1/2 184/1/2 185/1/2
f 184/1/3 183/1/3 185/1/3
f 183/1/3 184/1/3 20/1/3
f 183/1/6 181/1/6 185/1/6
f 181/1/6 183/1/6 180/1/6
f 19/1/7 184/1/7 182/1/7
f 184/1/7 19/1/7 20/1/7
f 20/1/8 42/1/8 17/1/8
f 42/1/8 20/1/8 34/1/8
f 186/1/1 20/1/1 17/1/1
f 20/1/1 186/1/1 187/1/1
f 188/1/2 42/1/2 34/1/2
f 42/1/2 188/1/2 189/1/2
f 188/1/3 186/1/3 189/1/3
f 186/1/3 188/1/3 187/1/3
f 186/1/6 42/1/6 189/1/6
f 42/1/6 186/1/6 17/1/6
f 20/1/7 188/1/7 34/1/7
f 188/1/7 20/1/7 187/1/7
f 187/1/8 190/1/8 186/1/8
f 190/1/8 187/1/8 191/1/8
f 192/1/1 187/1/1 186/1/1
f 187/1/1 192/1/1 193/1/1
f 194/1/2 190/1/2 191/1/2
f 190/1/2 194/1/2 195/1/2
f 194/1/3 192/1/3 195/1/3
f 192/1/3 194/1/3 193/1/3
f 192/1/6 190/1/6 195/1/6
f 190/1/6 192/1/6 186/1/6
f 187/1/7 194/1/7 191/1/7
f 194/1/7 187/1/7 193/1/7
f 193/1/8 197/1/8 196/1/8
f 197/1/8 193/1/8 194/1/8
f 198/1/1 193/1/1 196/1/1
f 193/1/1 198/1/1 199/1/1
f 200/1/2 197/1/2 194/1/2
f 197/1/2 200/1/2 201/1/2
f 200/1/3 198/1/3 201/1/3
f 198/1/3 200/1/3 199/1/3
f 198/1/6 197/1/6 201/1/6
f 197/1/6 198/1/6 196/1/6
f 193/1/7 200/1/7 194/1/7
f 200/1/7 193/1/7 199/1/7
f 199/1/8 203/1/8 202/1/8
f 203/1/8 199/1/8 204/1/8
f 205/1/1 199/1/1 202/1/1
f 199/1/1 205/1/1 206/1/1
f 207/1/2 203/1/2 204/1/2
f 203/1/2 207/1/2 208/1/2
f 207/1/3 205/1/3 208/1/3
f 205/1/3 207/1/3 206/1/3
f 205/1/6 203/1/6 208/1/6
f 203/1/6 205/1/6 202/1/6
f 199/1/7 207/1/7 204/1/7
f 207/1/7 199/1/7 206/1/7
f 206/1/8 210/1/8 209/1/8
f 210/1/8 206/1/8 211/1/8
f 212/1/1 206/1/1 209/1/1
f 206/1/1 212/1/1 213/1/1
f 214/1/2 210/1/2 211/1/2
f 210/1/2 214/1/2 215/1/2
f 214/1/3 212/1/3 215/1/3
f 212/1/3 214/1/3 213/1/3
f 212/1/6 210/1/6 215/1/6
f 210/1/6 212/1/6 209/1/6
f 206/1/7 214/1/7 211/1/7
f 214/1/7 206/1/7 213/1/7
f 213/2/8 217/2/8 216/2/8
f 217/2/8 213/2/8 214/2/8
f 218/2/1 213/2/1 216/2/1
f 213/2/1 218/2/1 219/2/1
f 220/2/2 217/2/2 214/2/2
f 217/2/2 220/2/2 221/2/2
f 220/2/3 218/2/3 221/2/3
f 218/2/3 220/2/3 219/2/3
f 218/2/6 217/2/6 221/2/6
f 217/2/6 218/2/6 216/2/6
f 213/2/7 220/2/7 214/2/7
f 220/2/7 213/2/7 219/2/7
f 219/1/8 222/1/8 218/1/8
f 222/1/8 219/1/8 223/1/8
f 44/1/1 219/1/1 218/1/1
f 219/1/1 44/1/1 43/1/1
f 73/1/2 222/1/2 223/1/2
f 222/1/2 73/1/2 66/1/2
f 73/1/3 44/1/3 66/1/3
f 44/1/3 73/1/3 43/1/3
f 44/1/6 222/1/6 66/1/6
f 222/1/6 44/1/6 218/1/6
f 219/1/7 73/1/7 223/1/7
f 73/1/7 219/1/7 43/1/7
f 43/1/8 225/1/8 224/1/8
f 225/1/8 43/1/8 226/1/8
f 227/1/1 43/1/1 224/1/1
f 43/1/1 227/1/1 45/1/1
f 228/1/2 225/1/2 226/1/2
f 225/1/2 228/1/2 229/1/2
f 228/1/3 227/1/3 229/1/3
f 227/1/3 228/1/3 45/1/3
f 227/1/6 225/1/6 229/1/6
f 225/1/6 227/1/6 224/1/6
f 43/1/7 228/1/7 226/1/7
f 228/1/7 43/1/7 45/1/7
f 171/1/8 231/1/8 230/1/8
f 231/1/8 171/1/8 232/1/8
f 233/1/1 171/1/1 230/1/1
f 171/1/1 233/1/1 173/1/1
f 148/1/2 231/1/2 232/1/2
f 231/1/2 148/1/2 234/1/2
f 148/1/3 233/1/3 234/1/3
f 233/1/3 148/1/3 173/1/3
f 233/1/6 231/1/6 234/1/6
f 231/1/6 233/1/6 230/1/6
f 171/1/7 148/1/7 232/1/7
f 148/1/7 171/1/7 173/1/7
f 88/1/8 236/1/8 235/1/8
f 236/1/8 88/1/8 237/1/8
f 238/1/1 88/1/1 235/1/1
f 88/1/1 238/1/1 91/1/1
f 4/1/2 236/1/2 237/1/2
f 236/1/2 4/1/2 239/1/2
f 4/1/3 238/1/3 239/1/3
f 238/1/3 4/1/3 91/1/3
f 238/1/6 236/1/6 239/1/6
f 236/1/6 238/1/6 235/1/6
f 88/1/7 4/1/7 237/1/7
f 4/1/7 88/1/7 91/1/7
f 91/1/8 8/1/8 92/1/8
f 8/1/8 91/1/8 7/1/8
f 240/1/1 91/1/1 92/1/1
f 91/1/1 240/1/1 178/1/1
f 138/1/2 8/1/2 7/1/2
f 8/1/2 138/1/2 137/1/2
f 138/1/3 240/1/3 137/1/3
f 240/1/3 138/1/3 178/1/3
f 240/1/6 8/1/6 137/1/6
f 8/1/6 240/1/6 92/1/6
f 91/1/7 138/1/7 7/1/7
f 138/1/7 91/1/7 178/1/7
f 182/1/8 38/1/8 241/1/8
f 38/1/8 182/1/8 29/1/8
f 242/1/1 182/1/1 241/1/1
f 182/1/1 242/1/1 184/1/1
f 34/1/2 38/1/2 29/1/2
f 38/1/2 34/1/2 42/1/2
f 34/1/3 242/1/3 42/1/3
f 242/1/3 34/1/3 184/1/3
f 242/1/6 38/1/6 42/1/6
f 38/1/6 242/1/6 241/1/6
f 182/1/7 34/1/7 29/1/7
f 34/1/7 182/1/7 184/1/7
f 191/2/8 244/2/8 243/2/8
f 244/2/8 191/2/8 245/2/8
f 197/2/1 191/2/1 243/2/1
f 191/2/1 197/2/1 194/2/1
f 246/2/2 244/2/2 245/2/2
f 244/2/2 246/2/2 247/2/2
f 246/2/3 197/2/3 247/2/3
f 197/2/3 246/2/3 194/2/3
f 197/2/6 244/2/6 247/2/6
f 244/2/6 197/2/6 243/2/6
f 191/2/7 246/2/7 245/2/7
f 246/2/7 191/2/7 194/2/7
f 194/1/8 248/1/8 195/1/8
f 248/1/8 194/1/8 249/1/8
f 250/1/1 194/1/1 195/1/1
f 194/1/1 250/1/1 200/1/1
f 251/1/2 248/1/2 249/1/2
f 248/1/2 251/1/2 252/1/2
f 251/1/3 250/1/3 252/1/3
f 250/1/3 251/1/3 200/1/3
f 250/1/6 248/1/6 252/1/6
f 248/1/6 250/1/6 195/1/6
f 194/1/7 251/1/7 249/1/7
f 251/1/7 194/1/7 200/1/7
f 211/1/8 254/1/8 253/1/8
f 254/1/8 211/1/8 255/1/8
f 256/1/1 211/1/1 253/1/1
f 211/1/1 256/1/1 257/1/1
f 258/1/2 254/1/2 255/1/2
f 254/1/2 258/1/2 259/1/2
f 258/1/3 256/1/3 259/1/3
f 256/1/3 258/1/3 257/1/3
f 256/1/6 254/1/6 259/1/6
f 254/1/6 256/1/6 253/1/6
f 211/1/7 258/1/7 255/1/7
f 258/1/7 211/1/7 257/1/7
f 257/2/8 260/2/8 256/2/8
f 260/2/8 257/2/8 261/2/8
f 217/2/1 257/2/1 256/2/1
f 257/2/1 217/2/1 214/2/1
f 262/2/2 260/2/2 261/2/2
f 260/2/2 262/2/2 263/2/2
f 262/2/3 217/2/3 263/2/3
f 217/2/3 262/2/3 214/2/3
f 217/2/6 260/2/6 263/2/6
f 260/2/6 217/2/6 256/2/6
f 257/2/7 262/2/7 261/2/7
f 262/2/7 257/2/7 214/2/7
f 214/2/8 264/2/8 215/2/8
f 264/2/8 214/2/8 262/2/8
f 265/2/1 214/2/1 215/2/1
f 214/2/1 265/2/1 220/2/1
f 266/2/2 264/2/2 262/2/2
f 264/2/2 266/2/2 267/2/2
f 266/2/3 265/2/3 267/2/3
f 265/2/3 266/2/3 220/2/3
f 265/2/6 264/2/6 267/2/6
f 264/2/6 265/2/6 215/2/6
f 214/2/7 266/2/7 262/2/7
f 266/2/7 214/2/7 220/2/7
f 226/1/8 66/1/8 268/1/8
f 66/1/8 226/1/8 73/1/8
f 269/1/1 226/1/1 268/1/1
f 226/1/1 269/1/1 228/1/1
f 72/1/2 66/1/2 73/1/2
f 66/1/2 72/1/2 61/1/2
f 72/1/3 269/1/3 61/1/3
f 269/1/3 72/1/3 228/1/3
f 269/1/6 66/1/6 61/1/6
f 66/1/6 269/1/6 268/1/6
f 226/1/7 72/1/7 73/1/7
f 72/1/7 226/1/7 228/1/7
f 232/1/8 118/1/8 270/1/8
f 118/1/8 232/1/8 117/1/8
f 147/1/1 232/1/1 270/1/1
f 232/1/1 147/1/1 148/1/1
f 81/1/2 118/1/2 117/1/2
f 118/1/2 81/1/2 79/1/2
f 81/1/3 147/1/3 79/1/3
f 147/1/3 81/1/3 148/1/3
f 147/1/6 118/1/6 79/1/6
f 118/1/6 147/1/6 270/1/6
f 232/1/7 81/1/7 117/1/7
f 81/1/7 232/1/7 148/1/7
f 148/1/8 272/1/8 271/1/8
f 272/1/8 148/1/8 80/1/8
f 273/1/1 148/1/1 271/1/1
f 148/1/1 273/1/1 149/1/1
f 274/1/2 272/1/2 80/1/2
f 272/1/2 274/1/2 275/1/2
f 274/1/3 273/1/3 275/1/3
f 273/1/3 274/1/3 149/1/3
f 273/1/6 272/1/6 275/1/6
f 272/1/6 273/1/6 271/1/6
f 148/1/7 274/1/7 80/1/7
f 274/1/7 148/1/7 149/1/7
f 245/1/8 189/1/8 276/1/8
f 189/1/8 245/1/8 188/1/8
f 277/1/1 245/1/1 276/1/1
f 245/1/1 277/1/1 246/1/1
f 249/1/2 189/1/2 188/1/2
f 189/1/2 249/1/2 248/1/2
f 249/1/3 277/1/3 248/1/3
f 277/1/3 249/1/3 246/1/3
f 277/1/6 189/1/6 248/1/6
f 189/1/6 277/1/6 276/1/6
f 245/1/7 249/1/7 188/1/7
f 249/1/7 245/1/7 246/1/7
f 204/1/8 279/1/8 278/1/8
f 279/1/8 204/1/8 251/1/8
f 280/1/1 204/1/1 278/1/1
f 204/1/1 280/1/1 207/1/1
f 255/1/2 279/1/2 251/1/2
f 279/1/2 255/1/2 281/1/2
f 255/1/3 280/1/3 281/1/3
f 280/1/3 255/1/3 207/1/3
f 280/1/6 279/1/6 281/1/6
f 279/1/6 280/1/6 278/1/6
f 204/1/7 255/1/7 251/1/7
f 255/1/7 204/1/7 207/1/7
f 261/1/8 259/1/8 260/1/8
f 259/1/8 261/1/8 258/1/8
f 282/1/1 261/1/1 260/1/1
f 261/1/1 282/1/1 266/1/1
f 223/1/2 259/1/2 258/1/2
f 259/1/2 223/1/2 222/1/2
f 223/1/3 282/1/3 222/1/3
f 282/1/3 223/1/3 266/1/3
f 282/1/6 259/1/6 222/1/6
f 259/1/6 282/1/6 260/1/6
f 261/1/7 223/1/7 258/1/7
f 223/1/7 261/1/7 266/1/7
f 285/2/8 284/2/8 283/2/8
f 284/2/8 285/2/8 286/2/8
f 287/2/1 285/2/1 283/2/1
f 285/2/1 287/2/1 138/2/1
f 288/2/2 284/2/2 286/2/2
f 284/2/2 288/2/2 289/2/2
f 288/2/3 287/2/3 289/2/3
f 287/2/3 288/2/3 138/2/3
f 287/2/6 284/2/6 289/2/6
f 284/2/6 287/2/6 283/2/6
f 285/2/7 288/2/7 286/2/7
f 288/2/7 285/2/7 138/2/7
f 138/2/8 290/2/8 137/2/8
f 290/2/8 138/2/8 288/2/8
f 291/2/1 138/2/1 137/2/1
f 138/2/1 291/2/1 292/2/1
f 293/2/2 290/2/2 288/2/2
f 290/2/2 293/2/2 294/2/2
f 293/2/3 291/2/3 294/2/3
f 291/2/3 293/2/3 292/2/3
f 291/2/6 290/2/6 294/2/6
f 290/2/6 291/2/6 137/2/6
f 138/2/7 293/2/7 288/2/7
f 293/2/7 138/2/7 292/2/7
f 292/1/8 294/1/8 291/1/8
f 294/1/8 292/1/8 293/1/8
f 38/1/1 292/1/1 291/1/1
f 292/1/1 38/1/1 29/1/1
f 27/1/2 294/1/2 293/1/2
f 294/1/2 27/1/2 37/1/2
f 27/1/3 38/1/3 37/1/3
f 38/1/3 27/1/3 29/1/3
f 38/1/6 294/1/6 37/1/6
f 294/1/6 38/1/6 291/1/6
f 292/1/7 27/1/7 293/1/7
f 27/1/7 292/1/7 29/1/7
f 114/2/8 104/2/8 113/2/8
f 104/2/8 114/2/8 103/2/8
f 118/2/1 114/2/1 113/2/1
f 114/2/1 118/2/1 117/2/1
f 295/2/2 104/2/2 103/2/2
f 104/2/2 295/2/2 296/2/2
f 295/2/3 118/2/3 296/2/3
f 118/2/3 295/2/3 117/2/3
f 118/2/6 104/2/6 296/2/6
f 104/2/6 118/2/6 113/2/6
f 114/2/7 295/2/7 103/2/7
f 295/2/7 114/2/7 117/2/7
f 117/2/8 298/2/8 297/2/8
f 298/2/8 117/2/8 295/2/8
f 299/2/1 117/2/1 297/2/1
f 117/2/1 299/2/1 300/2/1
f 301/2/2 298/2/2 295/2/2
f 298/2/2 301/2/2 302/2/2
f 301/2/3 299/2/3 302/2/3
f 299/2/3 301/2/3 300/2/3
f 299/2/6 298/2/6 302/2/6
f 298/2/6 299/2/6 297/2/6
f 117/2/7 301/2/7 295/2/7
f 301/2/7 117/2/7 300/2/7
f 286/1/8 303/1/8 284/1/8
f 303/1/8 286/1/8 304/1/8
f 305/1/1 286/1/1 284/1/1
f 286/1/1 305/1/1 306/1/1
f 307/1/2 303/1/2 304/1/2
f 303/1/2 307/1/2 308/1/2
f 307/1/3 305/1/3 308/1/3
f 305/1/3 307/1/3 306/1/3
f 305/1/6 303/1/6 308/1/6
f 303/1/6 305/1/6 284/1/6
f 286/1/7 307/1/7 304/1/7
f 307/1/7 286/1/7 306/1/7
f 306/1/8 310/1/8 309/1/8
f 310/1/8 306/1/8 311/1/8
f 290/1/1 306/1/1 309/1/1
f 306/1/1 290/1/1 288/1/1
f 312/1/2 310/1/2 311/1/2
f 310/1/2 312/1/2 313/1/2
f 312/1/3 290/1/3 313/1/3
f 290/1/3 312/1/3 288/1/3
f 290/1/6 310/1/6 313/1/6
f 310/1/6 290/1/6 309/1/6
f 306/1/7 312/1/7 311/1/7
f 312/1/7 306/1/7 288/1/7
f 288/1/8 314/1/8 290/1/8
f 314/1/8 288/1/8 315/1/8
f 294/1/1 288/1/1 290/1/1
f 288/1/1 294/1/1 293/1/1
f 316/1/2 314/1/2 315/1/2
f 314/1/2 316/1/2 317/1/2
f 316/1/3 294/1/3 317/1/3
f 294/1/3 316/1/3 293/1/3
f 294/1/6 314/1/6 317/1/6
f 314/1/6 294/1/6 290/1/6
f 288/1/7 316/1/7 315/1/7
f 316/1/7 288/1/7 293/1/7
f 293/1/8 319/1/8 318/1/8
f 319/1/8 293/1/8 320/1/8
f 321/1/1 293/1/1 318/1/1
f 293/1/1 321/1/1 27/1/1
f 322/1/2 319/1/2 320/1/2
f 319/1/2 322/1/2 323/1/2
f 322/1/3 321/1/3 323/1/3
f 321/1/3 322/1/3 27/1/3
f 321/1/6 319/1/6 323/1/6
f 319/1/6 321/1/6 318/1/6
f 293/1/7 322/1/7 320/1/7
f 322/1/7 293/1/7 27/1/7
f 68/1/8 325/1/8 324/1/8
f 325/1/8 68/1/8 326/1/8
f 327/1/1 68/1/1 324/1/1
f 68/1/1 327/1/1 103/1/1
f 328/1/2 325/1/2 326/1/2
f 325/1/2 328/1/2 329/1/2
f 328/1/3 327/1/3 329/1/3
f 327/1/3 328/1/3 103/1/3
f 327/1/6 325/1/6 329/1/6
f 325/1/6 327/1/6 324/1/6
f 68/1/7 328/1/7 326/1/7
f 328/1/7 68/1/7 103/1/7
f 103/1/8 330/1/8 104/1/8
f 330/1/8 103/1/8 328/1/8
f 331/1/1 103/1/1 104/1/1
f 103/1/1 331/1/1 332/1/1
f 333/1/2 330/1/2 328/1/2
f 330/1/2 333/1/2 334/1/2
f 333/1/3 331/1/3 334/1/3
f 331/1/3 333/1/3 332/1/3
f 331/1/6 330/1/6 334/1/6
f 330/1/6 331/1/6 104/1/6
f 103/1/7 333/1/7 328/1/7
f 333/1/7 103/1/7 332/1/7
f 332/1/8 336/1/8 335/1/8
f 336/1/8 332/1/8 337/1/8
f 302/1/1 332/1/1 335/1/1
f 332/1/1 302/1/1 301/1/1
f 338/1/2 336/1/2 337/1/2
f 336/1/2 338/1/2 339/1/2
f 338/1/3 302/1/3 339/1/3
f 302/1/3 338/1/3 301/1/3
f 302/1/6 336/1/6 339/1/6
f 336/1/6 302/1/6 335/1/6
f 332/1/7 338/1/7 337/1/7
f 338/1/7 332/1/7 301/1/7
f 304/1/8 341/1/8 340/1/8
f 341/1/8 304/1/8 342/1/8
f 343/1/1 304/1/1 340/1/1
f 304/1/1 343/1/1 307/1/1
f 311/1/2 341/1/2 342/1/2
f 341/1/2 311/1/2 310/1/2
f 311/1/3 343/1/3 310/1/3
f 343/1/3 311/1/3 307/1/3
f 343/1/6 341/1/6 310/1/6
f 341/1/6 343/1/6 340/1/6
f 304/1/7 311/1/7 342/1/7
f 311/1/7 304/1/7 307/1/7
f 315/1/8 344/1/8 314/1/8
f 344/1/8 315/1/8 345/1/8
f 317/1/1 315/1/1 314/1/1
f 315/1/1 317/1/1 316/1/1
f 320/1/2 344/1/2 345/1/2
f 344/1/2 320/1/2 346/1/2
f 320/1/3 317/1/3 346/1/3
f 317/1/3 320/1/3 316/1/3
f 317/1/6 344/1/6 346/1/6
f 344/1/6 317/1/6 314/1/6
f 315/1/7 320/1/7 345/1/7
f 320/1/7 315/1/7 316/1/7
f 337/1/8 348/1/8 347/1/8
f 348/1/8 337/1/8 349/1/8
f 350/1/1 337/1/1 347/1/1
f 337/1/1 350/1/1 338/1/1
f 351/1/2 348/1/2 349/1/2
f 348/1/2 351/1/2 352/1/2
f 351/1/3 350/1/3 352/1/3
f 350/1/3 351/1/3 338/1/3
f 350/1/6 348/1/6 352/1/6
f 348/1/6 350/1/6 347/1/6
f 337/1/7 351/1/7 349/1/7
f 351/1/7 337/1/7 338/1/7
f 345/1/8 354/1/8 353/1/8
f 354/1/8 345/1/8 355/1/8
f 356/1/1 345/1/1 353/1/1
f 345/1/1 356/1/1 320/1/1
f 357/1/2 354/1/2 355/1/2
f 354/1/2 357/1/2 358/1/2
f 357/1/3 356/1/3 358/1/3
f 356/1/3 357/1/3 320/1/3
f 356/1/6 354/1/6 358/1/6
f 354/1/6 356/1/6 353/1/6
f 345/1/7 357/1/7 355/1/7
f 357/1/7 345/1/7 320/1/7
f 320/1/8 359/1/8 346/1/8
f 359/1/8 320/1/8 360/1/8
f 361/1/1 320/1/1 346/1/1
f 320/1/1 361/1/1 322/1/1
f 362/1/2 359/1/2 360/1/2
f 359/1/2 362/1/2 363/1/2
f 362/1/3 361/1/3 363/1/3
f 361/1/3 362/1/3 322/1/3
f 361/1/6 359/1/6 363/1/6
f 359/1/6 361/1/6 346/1/6
f 320/1/7 362/1/7 360/1/7
f 362/1/7 320/1/7 322/1/7
f 326/1/8 365/1/8 364/1/8
f 365/1/8 326/1/8 366/1/8
f 330/1/1 326/1/1 364/1/1
f 326/1/1 330/1/1 328/1/1
f 367/1/2 365/1/2 366/1/2
f 365/1/2 367/1/2 368/1/2
f 367/1/3 330/1/3 368/1/3
f 330/1/3 367/1/3 328/1/3
f 330/1/6 365/1/6 368/1/6
f 365/1/6 330/1/6 364/1/6
f 326/1/7 367/1/7 366/1/7
f 367/1/7 326/1/7 328/1/7
f 328/1/8 370/1/8 369/1/8
f 370/1/8 328/1/8 371/1/8
f 372/1/1 328/1/1 369/1/1
f 328/1/1 372/1/1 373/1/1
f 374/1/2 370/1/2 371/1/2
f 370/1/2 374/1/2 375/1/2
f 374/1/3 372/1/3 375/1/3
f 372/1/3 374/1/3 373/1/3
f 372/1/6 370/1/6 375/1/6
f 370/1/6 372/1/6 369/1/6
f 328/1/7 374/1/7 371/1/7
f 374/1/7 328/1/7 373/1/7
f 373/2/8 377/2/8 376/2/8
f 377/2/8 373/2/8 374/2/8
f 334/2/1 373/2/1 376/2/1
f 373/2/1 334/2/1 333/2/1
f 378/2/2 377/2/2 374/2/2
f 377/2/2 378/2/2 379/2/2
f 378/2/3 334/2/3 379/2/3
f 334/2/3 378/2/3 333/2/3
f 334/2/6 377/2/6 379/2/6
f 377/2/6 334/2/6 376/2/6
f 373/2/7 378/2/7 374/2/7
f 378/2/7 373/2/7 333/2/7
f 355/1/8 313/1/8 380/1/8
f 313/1/8 355/1/8 312/1/8
f 381/1/1 355/1/1 380/1/1
f 355/1/1 381/1/1 357/1/1
f 360/1/2 313/1/2 312/1/2
f 313/1/2 360/1/2 359/1/2
f 360/1/3 381/1/3 359/1/3
f 381/1/3 360/1/3 357/1/3
f 381/1/6 313/1/6 359/1/6
f 313/1/6 381/1/6 380/1/6
f 355/1/7 360/1/7 312/1/7
f 360/1/7 355/1/7 357/1/7
f 371/1/8 383/1/8 382/1/8
f 383/1/8 371/1/8 384/1/8
f 379/1/1 371/1/1 382/1/1
f 371/1/1 379/1/1 378/1/1
f 385/1/2 383/1/2 384/1/2
f 383/1/2 385/1/2 386/1/2
f 385/1/3 379/1/3 386/1/3
f 379/1/3 385/1/3 378/1/3
f 379/1/6 383/1/6 386/1/6
f 383/1/6 379/1/6 382/1/6
f 371/1/7 385/1/7 384/1/7
f 385/1/7 371/1/7 378/1/7
f 384/2/8 368/2/8 383/2/8
f 368/2/8 384/2/8 367/2/8
f 387/2/1 384/2/1 383/2/1
f 384/2/1 387/2/1 388/2/1
f 389/2/2 368/2/2 367/2/2
f 368/2/2 389/2/2 390/2/2
f 389/2/3 387/2/3 390/2/3
f 387/2/3 389/2/3 388/2/3
f 387/2/6 368/2/6 390/2/6
f 368/2/6 387/2/6 383/2/6
f 384/2/7 389/2/7 367/2/7
f 389/2/7 384/2/7 388/2/7
f 388/1/8 390/1/8 387/1/8
f 390/1/8 388/1/8 389/1/8
f 386/1/1 388/1/1 387/1/1
f 388/1/1 386/1/1 385/1/1
f 349/1/2 390/1/2 389/1/2
f 390/1/2 349/1/2 348/1/2
f 349/1/3 386/1/3 348/1/3
f 386/1/3 349/1/3 385/1/3
f 386/1/6 390/1/6 348/1/6
f 390/1/6 386/1/6 387/1/6
f 388/1/7 349/1/7 389/1/7
f 349/1/7 388/1/7 385/1/7
f 116/1/8 119/1/8 115/1/8
f 119/1/8 116/1/8 120/1/8
f 107/1/1 116/1/1 115/1/1
f 116/1/1 107/1/1 108/1/1
f 109/1/2 119/1/2 120/1/2
f 119/1/2 109/1/2 110/1/2
f 109/1/3 107/1/3 110/1/3
f 107/1/3 109/1/3 108/1/3
f 107/1/6 119/1/6 110/1/6
f 119/1/6 107/1/6 115/1/6
f 116/1/7 109/1/7 120/1/7
f 109/1/7 116/1/7 108/1/7
f 187/1/8 190/1/8 186/1/8
f 190/1/8 187/1/8 191/1/8
f 192/1/1 187/1/1 186/1/1
f 187/1/1 192/1/1 193/1/1
f 194/1/2 190/1/2 191/1/2
f 190/1/2 194/1/2 195/1/2
f 194/1/3 192/1/3 195/1/3
f 192/1/3 194/1/3 193/1/3
f 192/1/6 190/1/6 195/1/6
f 190/1/6 192/1/6 186/1/6
f 187/1/7 194/1/7 191/1/7
f 194/1/7 187/1/7 193/1/7
f 288/1/8 314/1/8 290/1/8
f 314/1/8 288/1/8 315/1/8
f 294/1/1 288/1/1 290/1/1
f 288/1/1 294/1/1 293/1/1
f 316/1/2 314/1/2 315/1/2
f 314/1/2 316/1/2 317/1/2
f 316/1/3 294/1/3 317/1/3
f 294/1/3 316/1/3 293/1/3
f 294/1/6 314/1/6 317/1/6
f 314/1/6 294/1/6 290/1/6
f 288/1/7 316/1/7 315/1/7
f 316/1/7 288/1/7 293/1/7

