# Created by Kenney (www.kenney.nl)

mtllib t_ladder.mtl

v 9 -1 -1.5
v 9 -5.960464E-08 -1.5
v 9 -1 0.5
v 9 -5.960464E-08 0.5
v 10 -1 -1.5
v 9.5 -5.960464E-08 -1.5
v 10 -1 0.5
v 9.5 -5.960464E-08 0.5
v 9 -8 -2
v 9 -8.5 -2
v 10 -8 -2
v 10 -8 0.5
v 9 -8.5 0.5
v 9 -8 0.5
v 6.292893 -0.2928932 -1.5
v 6.133975 -0.5 -1.5
v 7 0 -1.5
v 6.5 -0.1339746 -1.5
v 6.741181 -0.03407419 -1.5
v 6.034074 -0.741181 -1.5
v 6 -1 -1.5
v 7 -1 -1.5
v 7 0 0.5
v 6.741181 -0.03407419 0.5
v 7 -1 0.5
v 6 -1 0.5
v 6.5 -0.1339746 0.5
v 6.292893 -0.2928932 0.5
v 6.034074 -0.741181 0.5
v 6.133975 -0.5 0.5
v 5 -6 -2
v 5 -5.5 -2
v 5 -6 0.5
v 5 -5.5 0.5
v 6 -6 -2
v 6 -5 -2
v 6 -6 0.5
v 6 -5 0.5
v 6 -9 0.5
v 6 -9.5 0.5
v 5 -9 0.5
v 6 -9 -2
v 6 -9.5 -2
v 5 -9 -2
v -5 -5.5 -2
v -5 -5.5 0.5
v -6 -5 -2
v -6 -5 0.5
v -6 -6 -2
v -5 -6 -2
v -5 -6 0.5
v -6 -6 0.5
v -6 -9 -2
v -6 -9.5 -2
v -5 -9 -2
v -5 -9 0.5
v -6 -9.5 0.5
v -6 -9 0.5
v -6 -1 0.5
v -7 -1 0.5
v -6.034074 -0.741181 0.5
v -7 0 0.5
v -6.133975 -0.5 0.5
v -6.292893 -0.2928932 0.5
v -6.5 -0.1339746 0.5
v -6.741181 -0.03407419 0.5
v -6.292893 -0.2928932 -1.5
v -6.5 -0.1339746 -1.5
v -6.034074 -0.741181 -1.5
v -6 -1 -1.5
v -6.741181 -0.03407419 -1.5
v -7 0 -1.5
v -7 -1 -1.5
v -6.133975 -0.5 -1.5
v -10 -1 -1.5
v -9.5 -5.960464E-08 -1.5
v -10 -1 0.5
v -9.5 -5.960464E-08 0.5
v -9 -1 0.5
v -9 -1 -1.5
v -9 -5.960464E-08 -1.5
v -9 -5.960464E-08 0.5
v -9 -8 0.5
v -9 -8.5 0.5
v -10 -8 0.5
v -9 -8 -2
v -9 -8.5 -2
v -10 -8 -2
v 9 0 -1.5
v 9 0 0.5
v -9 0 -1.5
v -9 0 0.5
v 10 -1 -2
v 10 -5 -2
v 10 -5 0.5
v 9 -1 -2
v 9 -5 0.5
v 9 -5 -2
v 9 -2 -2
v 9 -2 0.5
v 6 -1 -2
v 6 -2 0.5
v 6 -2 -2
v -6 -1 -2
v -8 -1 -2
v -8 -1 0.5
v -8 -5 0.5
v -8 -5 -2
v -8 -2 -2
v -8 -2 0.5
v -10 -1 -2
v -10 -2 0.5
v -10 -2 -2
v 9 -3 -2
v 9 -3 0.5
v 6 -3 0.5
v 6 -3 -2
v -8 -3 -2
v -8 -3 0.5
v -10 -3 0.5
v -10 -3 -2
v 9 -3 -1.5
v 9 -4 -1.5
v 9 -4 0.5
v 8 -3 -1.5
v 8 -3 0.5
v 8 -4 0.5
v 8 -4 -1.5
v 8 -3 -2
v 8 -12 -2
v 8 -12 0.5
v 7 -3 -2
v 7 -3 0.5
v 7 -12 0.5
v 7 -12 -2
v 7 -4 -2
v 7 -4 0.5
v 6 -4 0.5
v 6 -4 -2
v -8 -3 -1.5
v -8 -4 -1.5
v -8 -4 0.5
v -9 -3 -1.5
v -9 -3 0.5
v -9 -4 0.5
v -9 -4 -1.5
v -9 -3 -2
v -9 -5 -2
v -9 -5 0.5
v -10 -5 0.5
v -10 -5 -2
v 9 -4 -2
v 8 -4 -2
v 8 -5 0.5
v 8 -5 -2
v 7 -5 -2
v 7 -5 0.5
v -8 -4 -2
v -9 -4 -2
v 10 -6 -2
v 10 -6 0.5
v 9 -6 0.5
v 9 -6 -2
v 9 -5 -2.5
v 9 -6 -2.5
v 8 -5 -2.5
v 8 -6 0.5
v 8 -6 -2.5
v 7 -6 -2
v 7 -6 0.5
v -7 -5 -2
v -7 -5 0.5
v -7 -6 0.5
v -7 -6 -2
v -7 -12 -2
v -7 -12 0.5
v -8 -12 0.5
v -8 -12 -2
v -8 -5 -2.5
v -8 -6 -2.5
v -8 -6 0.5
v -9 -5 -2.5
v -9 -6 0.5
v -9 -6 -2.5
v -9 -6 -2
v -10 -6 0.5
v -10 -6 -2
v 10 -7 -2
v 10 -7 0.5
v 9 -7 0.5
v 9 -7 -2
v 9 -6 -1
v 9 -7 -1
v 8 -6 -1
v 8 -7 0.5
v 8 -7 -1
v 7 -10 -2
v 7 -10 0.5
v 6 -10 0.5
v 6 -10 -2
v 6 -6 -1.5
v 6 -7 -1.5
v 6 -7 0.5
v 5 -6 -1.5
v 5 -7 0.5
v 5 -7 -1.5
v 4 -6 -2
v 4 -6 0.5
v 4 -9 0.5
v 4 -9 -2
v 4 -6 -2.5
v 4 -7 -2.5
v 4 -7 0.5
v 3 -6 -2.5
v 3 -6 0.5
v 3 -7 0.5
v 3 -7 -2.5
v 3 -6 -1.5
v 3 -7 -1.5
v 1 -6 -1.5
v 1 -6 0.5
v 1 -7 0.5
v 1 -7 -1.5
v 1 -6 -2
v 1 -7 -2
v -1 -6 -2
v -1 -6 0.5
v -1 -7 0.5
v -1 -7 -2
v -1 -6 -1.5
v -1 -7 -1.5
v -3 -6 -1.5
v -3 -6 0.5
v -3 -7 0.5
v -3 -7 -1.5
v -3 -6 -2.5
v -3 -7 -2.5
v -4 -6 -2.5
v -4 -6 0.5
v -4 -7 0.5
v -4 -7 -2.5
v -4 -6 -2
v -4 -9 -2
v -4 -9 0.5
v -5 -6 -1.5
v -5 -7 -1.5
v -5 -7 0.5
v -6 -6 -1.5
v -6 -7 0.5
v -6 -7 -1.5
v -6 -10 -2
v -6 -10 0.5
v -7 -10 0.5
v -7 -10 -2
v -8 -6 -1
v -8 -7 -1
v -8 -7 0.5
v -9 -6 -1
v -9 -7 0.5
v -9 -7 -1
v -9 -7 -2
v -10 -7 0.5
v -10 -7 -2
v 10 -7 -1.5
v 10 -8 -1.5
v 9 -7 -1.5
v 9 -8 -1.5
v 9 -9 -2
v 9 -9 0.5
v 8 -7 -2
v 8 -9 0.5
v 8 -9 -2
v 6 -7 -2
v 5 -7 -2
v 4 -7 -1
v 4 -8 -1
v 4 -8 0.5
v 3 -7 -1
v 3 -8 0.5
v 3 -8 -1
v 3 -8 -2.5
v 2 -7 -2.5
v 2 -7 0.5
v 2 -8 0.5
v 2 -8 -2.5
v 1 -7 -2.5
v 1 -8 0.5
v 1 -8 -2.5
v 1 -8 -2
v -1 -8 0.5
v -1 -8 -2
v -1 -7 -2.5
v -1 -8 -2.5
v -2 -7 -2.5
v -2 -7 0.5
v -2 -8 0.5
v -2 -8 -2.5
v -3 -8 0.5
v -3 -8 -2.5
v -3 -7 -1
v -3 -8 -1
v -4 -7 -1
v -4 -8 0.5
v -4 -8 -1
v -5 -7 -2
v -6 -7 -2
v -8 -7 -2
v -8 -9 -2
v -8 -9 0.5
v -9 -9 0.5
v -9 -9 -2
v -9 -7 -1.5
v -9 -8 -1.5
v -10 -7 -1.5
v -10 -8 -1.5
v 4 -8 -2
v 2 -8 -2
v 2 -9 0.5
v 2 -9 -2
v 1 -9 0.5
v 1 -9 -2
v 1 -9 -2.5
v -1 -9 0.5
v -1 -9 -2.5
v -1 -9 -2
v -2 -8 -2
v -2 -9 0.5
v -2 -9 -2
v -4 -8 -2
v 10 -9 -1.5
v 10 -10 -1.5
v 10 -9 0.5
v 10 -10 0.5
v 9 -9 -1.5
v 9 -10 0.5
v 9 -10 -1.5
v 8 -9 -1.5
v 8 -10 0.5
v 8 -10 -1.5
v -8 -9 -1.5
v -8 -10 -1.5
v -8 -10 0.5
v -9 -9 -1.5
v -9 -10 0.5
v -9 -10 -1.5
v -10 -9 -1.5
v -10 -9 0.5
v -10 -10 0.5
v -10 -10 -1.5
v 10 -11 -1.5
v 10 -11 0.5
v 9 -11 0.5
v 9 -11 -1.5
v 9 -10 -2
v 9 -15 -2
v 9 -15 0.5
v 8 -10 -2
v 8 -15 0.5
v 8 -15 -2
v 7 -10 -1.5
v 7 -11 -1.5
v 7 -11 0.5
v 6 -10 -1.5
v 6 -11 0.5
v 6 -11 -1.5
v -6 -10 -1.5
v -6 -11 -1.5
v -6 -11 0.5
v -7 -10 -1.5
v -7 -11 0.5
v -7 -11 -1.5
v -8 -10 -2
v -9 -10 -2
v -9 -12 0.5
v -9 -12 -2
v -9 -11 -1.5
v -9 -11 0.5
v -10 -11 0.5
v -10 -11 -1.5
v 10 -11 -2
v 10 -15 -2
v 10 -15 0.5
v 9 -11 -2
v 7 -12 -1.5
v 6 -12 0.5
v 6 -12 -1.5
v -6 -12 -1.5
v -6 -12 0.5
v -7 -12 -1.5
v -9 -11 -2
v -9 -15 -2
v -9 -15 0.5
v -10 -11 -2
v -10 -15 0.5
v -10 -15 -2
v 8 -12 -2.5
v 8 -13 -2.5
v 8 -13 0.5
v 7 -12 -2.5
v 7 -13 0.5
v 7 -13 -2.5
v 7 -15 -2
v 7 -15 0.5
v 6 -12 -2
v 6 -15 0.5
v 6 -15 -2
v -6 -12 -2
v -6 -15 -2
v -6 -15 0.5
v -7 -15 0.5
v -7 -15 -2
v -7 -12 -2.5
v -7 -13 -2.5
v -7 -13 0.5
v -8 -12 -2.5
v -8 -13 0.5
v -8 -13 -2.5
v -8 -13 -2
v -9 -13 0.5
v -9 -13 -2
v 8 -13 -2
v 7 -13 -2
v -7 -13 -2
v -7 -14 -2
v -7 -14 0.5
v -9 -14 0.5
v -9 -14 -2
v -8 -14 -2
v -8 -14 0.5
v -8 -15 0.5
v -8 -15 -2

vn -1 0 0
vn 0 0 -1
vn 0 -1 0
vn 0 1 0
vn 0.8944272 0.4472136 0
vn 0 0 1
vn 0.4472136 -0.8944272 0
vn -0.1305262 0.9914449 0
vn -0.2588191 0.9659259 0
vn -0.5 0.8660254 0
vn -0.7071068 0.7071068 0
vn -0.9914449 0.1305262 0
vn -0.9659259 0.2588191 0
vn -0.8660254 0.5 0
vn 1 0 0
vn -0.4472136 0.8944272 0
vn -0.4472136 -0.8944272 0
vn 0.4472136 0.8944272 0
vn 0.7071068 0.7071068 0
vn 0.5 0.8660254 0
vn 0.9659259 0.2588191 0
vn 0.9914449 0.1305262 0
vn 0.2588191 0.9659258 0
vn 0.1305262 0.9914449 0
vn 0.8660254 0.5 0
vn -0.8944272 0.4472136 0

vt 0.9375 0.0625
vt 0.8125 0.0625

usemtl t_ladder

f 3/1/1 2/1/1 1/1/1
f 2/1/1 3/1/1 4/1/1
f 1/1/2 6/1/2 5/1/2
f 6/1/2 1/1/2 2/1/2
f 3/1/3 5/1/3 7/1/3
f 5/1/3 3/1/3 1/1/3
f 2/1/4 8/1/4 6/1/4
f 8/1/4 2/1/4 4/1/4
f 8/1/5 5/1/5 6/1/5
f 5/1/5 8/1/5 7/1/5
f 8/1/6 3/1/6 7/1/6
f 3/1/6 8/1/6 4/1/6
f 11/1/2 10/1/2 9/1/2
f 13/1/7 11/1/7 12/1/7
f 11/1/7 13/1/7 10/1/7
f 9/1/4 12/1/4 11/1/4
f 12/1/4 9/1/4 14/1/4
f 13/1/1 9/1/1 10/1/1
f 9/1/1 13/1/1 14/1/1
f 12/1/6 14/1/6 13/1/6
f 17/1/2 16/1/2 15/1/2
f 17/1/2 15/1/2 18/1/2
f 17/1/2 18/1/2 19/1/2
f 17/1/2 20/1/2 16/1/2
f 20/1/2 22/1/2 21/1/2
f 22/1/2 20/1/2 17/1/2
f 19/1/9 23/1/8 17/1/8
f 23/1/8 19/1/9 24/1/9
f 26/1/3 22/1/3 25/1/3
f 22/1/3 26/1/3 21/1/3
f 15/1/11 27/1/10 18/1/10
f 27/1/10 15/1/11 28/1/11
f 26/1/12 20/1/13 21/1/12
f 20/1/13 26/1/12 29/1/13
f 29/1/13 16/1/14 20/1/13
f 16/1/14 29/1/13 30/1/14
f 30/1/14 15/1/11 16/1/14
f 15/1/11 30/1/14 28/1/11
f 18/1/10 24/1/9 19/1/9
f 24/1/9 18/1/10 27/1/10
f 23/1/15 22/1/15 17/1/15
f 22/1/15 23/1/15 25/1/15
f 23/1/6 26/1/6 25/1/6
f 26/1/6 23/1/6 29/1/6
f 29/1/6 23/1/6 30/1/6
f 30/1/6 23/1/6 28/1/6
f 28/1/6 23/1/6 27/1/6
f 27/1/6 23/1/6 24/1/6
f 33/1/1 32/1/1 31/1/1
f 32/1/1 33/1/1 34/1/1
f 31/1/2 36/1/2 35/1/2
f 36/1/2 31/1/2 32/1/2
f 33/1/3 35/1/3 37/1/3
f 35/1/3 33/1/3 31/1/3
f 32/1/16 38/1/16 36/1/16
f 38/1/16 32/1/16 34/1/16
f 38/1/15 35/1/15 36/1/15
f 35/1/15 38/1/15 37/1/15
f 38/1/6 33/1/6 37/1/6
f 33/1/6 38/1/6 34/1/6
f 41/1/6 40/1/6 39/1/6
f 39/1/15 43/1/15 42/1/15
f 43/1/15 39/1/15 40/1/15
f 44/1/2 42/1/2 43/1/2
f 41/1/17 43/1/17 40/1/17
f 43/1/17 41/1/17 44/1/17
f 44/1/4 39/1/4 42/1/4
f 39/1/4 44/1/4 41/1/4
f 47/1/18 46/1/18 45/1/18
f 46/1/18 47/1/18 48/1/18
f 47/1/2 50/1/2 49/1/2
f 50/1/2 47/1/2 45/1/2
f 46/1/15 50/1/15 45/1/15
f 50/1/15 46/1/15 51/1/15
f 52/1/1 47/1/1 49/1/1
f 47/1/1 52/1/1 48/1/1
f 52/1/3 50/1/3 51/1/3
f 50/1/3 52/1/3 49/1/3
f 51/1/6 48/1/6 52/1/6
f 48/1/6 51/1/6 46/1/6
f 55/1/2 54/1/2 53/1/2
f 57/1/7 55/1/7 56/1/7
f 55/1/7 57/1/7 54/1/7
f 53/1/4 56/1/4 55/1/4
f 56/1/4 53/1/4 58/1/4
f 57/1/1 53/1/1 54/1/1
f 53/1/1 57/1/1 58/1/1
f 56/1/6 58/1/6 57/1/6
f 61/1/6 60/1/6 59/1/6
f 60/1/6 61/1/6 62/1/6
f 62/1/6 61/1/6 63/1/6
f 62/1/6 63/1/6 64/1/6
f 62/1/6 64/1/6 65/1/6
f 62/1/6 65/1/6 66/1/6
f 68/1/20 64/1/19 67/1/19
f 64/1/19 68/1/20 65/1/20
f 61/1/21 70/1/22 69/1/21
f 70/1/22 61/1/21 59/1/22
f 72/1/24 66/1/23 71/1/23
f 66/1/23 72/1/24 62/1/24
f 73/1/2 69/1/2 70/1/2
f 69/1/2 73/1/2 72/1/2
f 69/1/2 72/1/2 74/1/2
f 74/1/2 72/1/2 67/1/2
f 67/1/2 72/1/2 68/1/2
f 68/1/2 72/1/2 71/1/2
f 64/1/19 74/1/25 67/1/19
f 74/1/25 64/1/19 63/1/25
f 60/1/3 70/1/3 59/1/3
f 70/1/3 60/1/3 73/1/3
f 60/1/1 72/1/1 73/1/1
f 72/1/1 60/1/1 62/1/1
f 63/1/25 69/1/21 74/1/25
f 69/1/21 63/1/25 61/1/21
f 71/1/23 65/1/20 68/1/20
f 65/1/20 71/1/23 66/1/23
f 77/1/26 76/1/26 75/1/26
f 76/1/26 77/1/26 78/1/26
f 77/1/3 80/1/3 79/1/3
f 80/1/3 77/1/3 75/1/3
f 82/1/15 80/1/15 81/1/15
f 80/1/15 82/1/15 79/1/15
f 76/1/2 80/1/2 75/1/2
f 80/1/2 76/1/2 81/1/2
f 76/1/4 82/1/4 81/1/4
f 82/1/4 76/1/4 78/1/4
f 79/1/6 78/1/6 77/1/6
f 78/1/6 79/1/6 82/1/6
f 85/1/6 84/1/6 83/1/6
f 83/1/15 87/1/15 86/1/15
f 87/1/15 83/1/15 84/1/15
f 88/1/2 86/1/2 87/1/2
f 85/1/17 87/1/17 84/1/17
f 87/1/17 85/1/17 88/1/17
f 88/1/4 83/1/4 86/1/4
f 83/1/4 88/1/4 85/1/4
f 90/1/15 1/1/15 89/1/15
f 1/1/15 90/1/15 3/1/15
f 17/1/4 4/1/4 2/1/4
f 4/1/4 17/1/4 23/1/4
f 25/1/3 1/1/3 3/1/3
f 1/1/3 25/1/3 22/1/3
f 25/1/1 17/1/1 22/1/1
f 17/1/1 25/1/1 23/1/1
f 17/1/2 1/1/2 22/1/2
f 1/1/2 17/1/2 2/1/2
f 4/1/6 25/1/6 3/1/6
f 25/1/6 4/1/6 23/1/6
f 62/1/15 73/1/15 72/1/15
f 73/1/15 62/1/15 60/1/15
f 81/1/4 62/1/4 72/1/4
f 62/1/4 81/1/4 82/1/4
f 79/1/3 73/1/3 60/1/3
f 73/1/3 79/1/3 80/1/3
f 79/1/1 91/1/1 80/1/1
f 91/1/1 79/1/1 92/1/1
f 81/1/2 73/1/2 80/1/2
f 73/1/2 81/1/2 72/1/2
f 62/1/6 79/1/6 60/1/6
f 79/1/6 62/1/6 82/1/6
f 7/1/15 94/1/15 93/1/15
f 94/1/15 7/1/15 95/1/15
f 96/1/4 7/1/4 93/1/4
f 7/1/4 96/1/4 3/1/4
f 97/1/3 94/1/3 95/1/3
f 94/1/3 97/1/3 98/1/3
f 97/1/1 96/1/1 98/1/1
f 96/1/1 97/1/1 3/1/1
f 96/1/2 94/1/2 98/1/2
f 94/1/2 96/1/2 93/1/2
f 7/1/6 97/1/6 95/1/6
f 97/1/6 7/1/6 3/1/6
f 3/1/15 99/1/15 96/1/15
f 99/1/15 3/1/15 100/1/15
f 101/1/4 3/1/4 96/1/4
f 3/1/4 101/1/4 26/1/4
f 102/1/3 99/1/3 100/1/3
f 99/1/3 102/1/3 103/1/3
f 102/1/1 101/1/1 103/1/1
f 101/1/1 102/1/1 26/1/1
f 101/1/2 99/1/2 103/1/2
f 99/1/2 101/1/2 96/1/2
f 3/1/6 102/1/6 100/1/6
f 102/1/6 3/1/6 26/1/6
f 59/1/15 47/1/15 104/1/15
f 47/1/15 59/1/15 48/1/15
f 105/1/4 59/1/4 104/1/4
f 59/1/4 105/1/4 106/1/4
f 107/1/3 47/1/3 48/1/3
f 47/1/3 107/1/3 108/1/3
f 107/1/1 105/1/1 108/1/1
f 105/1/1 107/1/1 106/1/1
f 105/1/2 47/1/2 108/1/2
f 47/1/2 105/1/2 104/1/2
f 59/1/6 107/1/6 48/1/6
f 107/1/6 59/1/6 106/1/6
f 106/1/15 109/1/15 105/1/15
f 109/1/15 106/1/15 110/1/15
f 111/1/4 106/1/4 105/1/4
f 106/1/4 111/1/4 77/1/4
f 112/1/3 109/1/3 110/1/3
f 109/1/3 112/1/3 113/1/3
f 112/1/1 111/1/1 113/1/1
f 111/1/1 112/1/1 77/1/1
f 111/1/2 109/1/2 113/1/2
f 109/1/2 111/1/2 105/1/2
f 106/1/6 112/1/6 110/1/6
f 112/1/6 106/1/6 77/1/6
f 100/1/15 114/1/15 99/1/15
f 114/1/15 100/1/15 115/1/15
f 103/1/4 100/1/4 99/1/4
f 100/1/4 103/1/4 102/1/4
f 116/1/3 114/1/3 115/1/3
f 114/1/3 116/1/3 117/1/3
f 116/1/1 103/1/1 117/1/1
f 103/1/1 116/1/1 102/1/1
f 103/1/2 114/1/2 117/1/2
f 114/1/2 103/1/2 99/1/2
f 100/1/6 116/1/6 115/1/6
f 116/1/6 100/1/6 102/1/6
f 110/1/15 118/1/15 109/1/15
f 118/1/15 110/1/15 119/1/15
f 113/1/4 110/1/4 109/1/4
f 110/1/4 113/1/4 112/1/4
f 120/1/3 118/1/3 119/1/3
f 118/1/3 120/1/3 121/1/3
f 120/1/1 113/1/1 121/1/1
f 113/1/1 120/1/1 112/1/1
f 113/1/2 118/1/2 121/1/2
f 118/1/2 113/1/2 109/1/2
f 110/1/6 120/1/6 119/1/6
f 120/1/6 110/1/6 112/1/6
f 115/2/15 123/2/15 122/2/15
f 123/2/15 115/2/15 124/2/15
f 125/2/4 115/2/4 122/2/4
f 115/2/4 125/2/4 126/2/4
f 127/2/3 123/2/3 124/2/3
f 123/2/3 127/2/3 128/2/3
f 127/2/1 125/2/1 128/2/1
f 125/2/1 127/2/1 126/2/1
f 125/2/2 123/2/2 128/2/2
f 123/2/2 125/2/2 122/2/2
f 115/2/6 127/2/6 124/2/6
f 127/2/6 115/2/6 126/2/6
f 126/1/15 130/1/15 129/1/15
f 130/1/15 126/1/15 131/1/15
f 132/1/4 126/1/4 129/1/4
f 126/1/4 132/1/4 133/1/4
f 134/1/3 130/1/3 131/1/3
f 130/1/3 134/1/3 135/1/3
f 134/1/1 132/1/1 135/1/1
f 132/1/1 134/1/1 133/1/1
f 132/1/2 130/1/2 135/1/2
f 130/1/2 132/1/2 129/1/2
f 126/1/6 134/1/6 131/1/6
f 134/1/6 126/1/6 133/1/6
f 133/1/15 136/1/15 132/1/15
f 136/1/15 133/1/15 137/1/15
f 117/1/4 133/1/4 132/1/4
f 133/1/4 117/1/4 116/1/4
f 138/1/3 136/1/3 137/1/3
f 136/1/3 138/1/3 139/1/3
f 138/1/1 117/1/1 139/1/1
f 117/1/1 138/1/1 116/1/1
f 117/1/2 136/1/2 139/1/2
f 136/1/2 117/1/2 132/1/2
f 133/1/6 138/1/6 137/1/6
f 138/1/6 133/1/6 116/1/6
f 119/2/15 141/2/15 140/2/15
f 141/2/15 119/2/15 142/2/15
f 143/2/4 119/2/4 140/2/4
f 119/2/4 143/2/4 144/2/4
f 145/2/3 141/2/3 142/2/3
f 141/2/3 145/2/3 146/2/3
f 145/2/1 143/2/1 146/2/1
f 143/2/1 145/2/1 144/2/1
f 143/2/2 141/2/2 146/2/2
f 141/2/2 143/2/2 140/2/2
f 119/2/6 145/2/6 142/2/6
f 145/2/6 119/2/6 144/2/6
f 144/1/15 148/1/15 147/1/15
f 148/1/15 144/1/15 149/1/15
f 121/1/4 144/1/4 147/1/4
f 144/1/4 121/1/4 120/1/4
f 150/1/3 148/1/3 149/1/3
f 148/1/3 150/1/3 151/1/3
f 150/1/1 121/1/1 151/1/1
f 121/1/1 150/1/1 120/1/1
f 121/1/2 148/1/2 151/1/2
f 148/1/2 121/1/2 147/1/2
f 144/1/6 150/1/6 149/1/6
f 150/1/6 144/1/6 120/1/6
f 124/1/15 98/1/15 152/1/15
f 98/1/15 124/1/15 97/1/15
f 153/1/4 124/1/4 152/1/4
f 124/1/4 153/1/4 127/1/4
f 154/1/3 98/1/3 97/1/3
f 98/1/3 154/1/3 155/1/3
f 154/1/1 153/1/1 155/1/1
f 153/1/1 154/1/1 127/1/1
f 153/1/2 98/1/2 155/1/2
f 98/1/2 153/1/2 152/1/2
f 124/1/6 154/1/6 97/1/6
f 154/1/6 124/1/6 127/1/6
f 137/1/15 156/1/15 136/1/15
f 156/1/15 137/1/15 157/1/15
f 139/1/4 137/1/4 136/1/4
f 137/1/4 139/1/4 138/1/4
f 38/1/3 156/1/3 157/1/3
f 156/1/3 38/1/3 36/1/3
f 38/1/1 139/1/1 36/1/1
f 139/1/1 38/1/1 138/1/1
f 139/1/2 156/1/2 36/1/2
f 156/1/2 139/1/2 136/1/2
f 137/1/6 38/1/6 157/1/6
f 38/1/6 137/1/6 138/1/6
f 142/1/15 108/1/15 158/1/15
f 108/1/15 142/1/15 107/1/15
f 159/1/4 142/1/4 158/1/4
f 142/1/4 159/1/4 145/1/4
f 149/1/3 108/1/3 107/1/3
f 108/1/3 149/1/3 148/1/3
f 149/1/1 159/1/1 148/1/1
f 159/1/1 149/1/1 145/1/1
f 159/1/2 108/1/2 148/1/2
f 108/1/2 159/1/2 158/1/2
f 142/1/6 149/1/6 107/1/6
f 149/1/6 142/1/6 145/1/6
f 95/2/15 160/2/15 94/2/15
f 160/2/15 95/2/15 161/2/15
f 98/2/4 95/2/4 94/2/4
f 95/2/4 98/2/4 97/2/4
f 162/2/3 160/2/3 161/2/3
f 160/2/3 162/2/3 163/2/3
f 162/2/1 98/2/1 163/2/1
f 98/2/1 162/2/1 97/2/1
f 98/2/2 160/2/2 163/2/2
f 160/2/2 98/2/2 94/2/2
f 95/2/6 162/2/6 161/2/6
f 162/2/6 95/2/6 97/2/6
f 97/1/15 165/1/15 164/1/15
f 165/1/15 97/1/15 162/1/15
f 166/1/4 97/1/4 164/1/4
f 97/1/4 166/1/4 154/1/4
f 167/1/3 165/1/3 162/1/3
f 165/1/3 167/1/3 168/1/3
f 167/1/1 166/1/1 168/1/1
f 166/1/1 167/1/1 154/1/1
f 166/1/2 165/1/2 168/1/2
f 165/1/2 166/1/2 164/1/2
f 97/1/6 167/1/6 162/1/6
f 167/1/6 97/1/6 154/1/6
f 157/2/15 169/2/15 156/2/15
f 169/2/15 157/2/15 170/2/15
f 36/2/4 157/2/4 156/2/4
f 157/2/4 36/2/4 38/2/4
f 37/2/3 169/2/3 170/2/3
f 169/2/3 37/2/3 35/2/3
f 37/2/1 36/2/1 35/2/1
f 36/2/1 37/2/1 38/2/1
f 36/2/2 169/2/2 35/2/2
f 169/2/2 36/2/2 156/2/2
f 157/2/6 37/2/6 170/2/6
f 37/2/6 157/2/6 38/2/6
f 48/2/15 49/2/15 47/2/15
f 49/2/15 48/2/15 52/2/15
f 171/2/4 48/2/4 47/2/4
f 48/2/4 171/2/4 172/2/4
f 173/2/3 49/2/3 52/2/3
f 49/2/3 173/2/3 174/2/3
f 173/2/1 171/2/1 174/2/1
f 171/2/1 173/2/1 172/2/1
f 171/2/2 49/2/2 174/2/2
f 49/2/2 171/2/2 47/2/2
f 48/2/6 173/2/6 52/2/6
f 173/2/6 48/2/6 172/2/6
f 172/1/15 175/1/15 171/1/15
f 175/1/15 172/1/15 176/1/15
f 108/1/4 172/1/4 171/1/4
f 172/1/4 108/1/4 107/1/4
f 177/1/3 175/1/3 176/1/3
f 175/1/3 177/1/3 178/1/3
f 177/1/1 108/1/1 178/1/1
f 108/1/1 177/1/1 107/1/1
f 108/1/2 175/1/2 178/1/2
f 175/1/2 108/1/2 171/1/2
f 172/1/6 177/1/6 176/1/6
f 177/1/6 172/1/6 107/1/6
f 107/1/15 180/1/15 179/1/15
f 180/1/15 107/1/15 181/1/15
f 182/1/4 107/1/4 179/1/4
f 107/1/4 182/1/4 149/1/4
f 183/1/3 180/1/3 181/1/3
f 180/1/3 183/1/3 184/1/3
f 183/1/1 182/1/1 184/1/1
f 182/1/1 183/1/1 149/1/1
f 182/1/2 180/1/2 184/1/2
f 180/1/2 182/1/2 179/1/2
f 107/1/6 183/1/6 181/1/6
f 183/1/6 107/1/6 149/1/6
f 149/2/15 185/2/15 148/2/15
f 185/2/15 149/2/15 183/2/15
f 151/2/4 149/2/4 148/2/4
f 149/2/4 151/2/4 150/2/4
f 186/2/3 185/2/3 183/2/3
f 185/2/3 186/2/3 187/2/3
f 186/2/1 151/2/1 187/2/1
f 151/2/1 186/2/1 150/2/1
f 151/2/2 185/2/2 187/2/2
f 185/2/2 151/2/2 148/2/2
f 149/2/6 186/2/6 183/2/6
f 186/2/6 149/2/6 150/2/6
f 161/1/15 188/1/15 160/1/15
f 188/1/15 161/1/15 189/1/15
f 163/1/4 161/1/4 160/1/4
f 161/1/4 163/1/4 162/1/4
f 190/1/3 188/1/3 189/1/3
f 188/1/3 190/1/3 191/1/3
f 190/1/1 163/1/1 191/1/1
f 163/1/1 190/1/1 162/1/1
f 163/1/2 188/1/2 191/1/2
f 188/1/2 163/1/2 160/1/2
f 161/1/6 190/1/6 189/1/6
f 190/1/6 161/1/6 162/1/6
f 162/1/15 193/1/15 192/1/15
f 193/1/15 162/1/15 190/1/15
f 194/1/4 162/1/4 192/1/4
f 162/1/4 194/1/4 167/1/4
f 195/1/3 193/1/3 190/1/3
f 193/1/3 195/1/3 196/1/3
f 195/1/1 194/1/1 196/1/1
f 194/1/1 195/1/1 167/1/1
f 194/1/2 193/1/2 196/1/2
f 193/1/2 194/1/2 192/1/2
f 162/1/6 195/1/6 190/1/6
f 195/1/6 162/1/6 167/1/6
f 170/1/15 197/1/15 169/1/15
f 197/1/15 170/1/15 198/1/15
f 35/1/4 170/1/4 169/1/4
f 170/1/4 35/1/4 37/1/4
f 199/1/3 197/1/3 198/1/3
f 197/1/3 199/1/3 200/1/3
f 199/1/1 35/1/1 200/1/1
f 35/1/1 199/1/1 37/1/1
f 35/1/2 197/1/2 200/1/2
f 197/1/2 35/1/2 169/1/2
f 170/1/6 199/1/6 198/1/6
f 199/1/6 170/1/6 37/1/6
f 37/1/15 202/1/15 201/1/15
f 202/1/15 37/1/15 203/1/15
f 204/1/4 37/1/4 201/1/4
f 37/1/4 204/1/4 33/1/4
f 205/1/3 202/1/3 203/1/3
f 202/1/3 205/1/3 206/1/3
f 205/1/1 204/1/1 206/1/1
f 204/1/1 205/1/1 33/1/1
f 204/1/2 202/1/2 206/1/2
f 202/1/2 204/1/2 201/1/2
f 37/1/6 205/1/6 203/1/6
f 205/1/6 37/1/6 33/1/6
f 33/1/15 44/1/15 31/1/15
f 44/1/15 33/1/15 41/1/15
f 207/1/4 33/1/4 31/1/4
f 33/1/4 207/1/4 208/1/4
f 209/1/3 44/1/3 41/1/3
f 44/1/3 209/1/3 210/1/3
f 209/1/1 207/1/1 210/1/1
f 207/1/1 209/1/1 208/1/1
f 207/1/2 44/1/2 210/1/2
f 44/1/2 207/1/2 31/1/2
f 33/1/6 209/1/6 41/1/6
f 209/1/6 33/1/6 208/1/6
f 208/1/15 212/1/15 211/1/15
f 212/1/15 208/1/15 213/1/15
f 214/1/4 208/1/4 211/1/4
f 208/1/4 214/1/4 215/1/4
f 216/1/3 212/1/3 213/1/3
f 212/1/3 216/1/3 217/1/3
f 216/1/1 214/1/1 217/1/1
f 214/1/1 216/1/1 215/1/1
f 214/1/2 212/1/2 217/1/2
f 212/1/2 214/1/2 211/1/2
f 208/1/6 216/1/6 213/1/6
f 216/1/6 208/1/6 215/1/6
f 215/1/15 219/1/15 218/1/15
f 219/1/15 215/1/15 216/1/15
f 220/1/4 215/1/4 218/1/4
f 215/1/4 220/1/4 221/1/4
f 222/1/3 219/1/3 216/1/3
f 219/1/3 222/1/3 223/1/3
f 222/1/1 220/1/1 223/1/1
f 220/1/1 222/1/1 221/1/1
f 220/1/2 219/1/2 223/1/2
f 219/1/2 220/1/2 218/1/2
f 215/1/6 222/1/6 216/1/6
f 222/1/6 215/1/6 221/1/6
f 221/2/15 225/2/15 224/2/15
f 225/2/15 221/2/15 222/2/15
f 226/2/4 221/2/4 224/2/4
f 221/2/4 226/2/4 227/2/4
f 228/2/3 225/2/3 222/2/3
f 225/2/3 228/2/3 229/2/3
f 228/2/1 226/2/1 229/2/1
f 226/2/1 228/2/1 227/2/1
f 226/2/2 225/2/2 229/2/2
f 225/2/2 226/2/2 224/2/2
f 221/2/6 228/2/6 222/2/6
f 228/2/6 221/2/6 227/2/6
f 227/1/15 231/1/15 230/1/15
f 231/1/15 227/1/15 228/1/15
f 232/1/4 227/1/4 230/1/4
f 227/1/4 232/1/4 233/1/4
f 234/1/3 231/1/3 228/1/3
f 231/1/3 234/1/3 235/1/3
f 234/1/1 232/1/1 235/1/1
f 232/1/1 234/1/1 233/1/1
f 232/1/2 231/1/2 235/1/2
f 231/1/2 232/1/2 230/1/2
f 227/1/6 234/1/6 228/1/6
f 234/1/6 227/1/6 233/1/6
f 233/1/15 237/1/15 236/1/15
f 237/1/15 233/1/15 234/1/15
f 238/1/4 233/1/4 236/1/4
f 233/1/4 238/1/4 239/1/4
f 240/1/3 237/1/3 234/1/3
f 237/1/3 240/1/3 241/1/3
f 240/1/1 238/1/1 241/1/1
f 238/1/1 240/1/1 239/1/1
f 238/1/2 237/1/2 241/1/2
f 237/1/2 238/1/2 236/1/2
f 233/1/6 240/1/6 234/1/6
f 240/1/6 233/1/6 239/1/6
f 239/1/15 243/1/15 242/1/15
f 243/1/15 239/1/15 244/1/15
f 50/1/4 239/1/4 242/1/4
f 239/1/4 50/1/4 51/1/4
f 56/1/3 243/1/3 244/1/3
f 243/1/3 56/1/3 55/1/3
f 56/1/1 50/1/1 55/1/1
f 50/1/1 56/1/1 51/1/1
f 50/1/2 243/1/2 55/1/2
f 243/1/2 50/1/2 242/1/2
f 239/1/6 56/1/6 244/1/6
f 56/1/6 239/1/6 51/1/6
f 51/1/15 246/1/15 245/1/15
f 246/1/15 51/1/15 247/1/15
f 248/1/4 51/1/4 245/1/4
f 51/1/4 248/1/4 52/1/4
f 249/1/3 246/1/3 247/1/3
f 246/1/3 249/1/3 250/1/3
f 249/1/1 248/1/1 250/1/1
f 248/1/1 249/1/1 52/1/1
f 248/1/2 246/1/2 250/1/2
f 246/1/2 248/1/2 245/1/2
f 51/1/6 249/1/6 247/1/6
f 249/1/6 51/1/6 52/1/6
f 52/1/15 251/1/15 49/1/15
f 251/1/15 52/1/15 252/1/15
f 174/1/4 52/1/4 49/1/4
f 52/1/4 174/1/4 173/1/4
f 253/1/3 251/1/3 252/1/3
f 251/1/3 253/1/3 254/1/3
f 253/1/1 174/1/1 254/1/1
f 174/1/1 253/1/1 173/1/1
f 174/1/2 251/1/2 254/1/2
f 251/1/2 174/1/2 49/1/2
f 52/1/6 253/1/6 252/1/6
f 253/1/6 52/1/6 173/1/6
f 181/1/15 256/1/15 255/1/15
f 256/1/15 181/1/15 257/1/15
f 258/1/4 181/1/4 255/1/4
f 181/1/4 258/1/4 183/1/4
f 259/1/3 256/1/3 257/1/3
f 256/1/3 259/1/3 260/1/3
f 259/1/1 258/1/1 260/1/1
f 258/1/1 259/1/1 183/1/1
f 258/1/2 256/1/2 260/1/2
f 256/1/2 258/1/2 255/1/2
f 181/1/6 259/1/6 257/1/6
f 259/1/6 181/1/6 183/1/6
f 183/1/15 261/1/15 185/1/15
f 261/1/15 183/1/15 259/1/15
f 187/1/4 183/1/4 185/1/4
f 183/1/4 187/1/4 186/1/4
f 262/1/3 261/1/3 259/1/3
f 261/1/3 262/1/3 263/1/3
f 262/1/1 187/1/1 263/1/1
f 187/1/1 262/1/1 186/1/1
f 187/1/2 261/1/2 263/1/2
f 261/1/2 187/1/2 185/1/2
f 183/1/6 262/1/6 259/1/6
f 262/1/6 183/1/6 186/1/6
f 189/1/15 265/1/15 264/1/15
f 265/1/15 189/1/15 12/1/15
f 266/1/4 189/1/4 264/1/4
f 189/1/4 266/1/4 190/1/4
f 14/1/3 265/1/3 12/1/3
f 265/1/3 14/1/3 267/1/3
f 14/1/1 266/1/1 267/1/1
f 266/1/1 14/1/1 190/1/1
f 266/1/2 265/1/2 267/1/2
f 265/1/2 266/1/2 264/1/2
f 189/1/6 14/1/6 12/1/6
f 14/1/6 189/1/6 190/1/6
f 190/1/15 268/1/15 191/1/15
f 268/1/15 190/1/15 269/1/15
f 270/1/4 190/1/4 191/1/4
f 190/1/4 270/1/4 195/1/4
f 271/1/3 268/1/3 269/1/3
f 268/1/3 271/1/3 272/1/3
f 271/1/1 270/1/1 272/1/1
f 270/1/1 271/1/1 195/1/1
f 270/1/2 268/1/2 272/1/2
f 268/1/2 270/1/2 191/1/2
f 190/1/6 271/1/6 269/1/6
f 271/1/6 190/1/6 195/1/6
f 203/1/15 42/1/15 273/1/15
f 42/1/15 203/1/15 39/1/15
f 274/1/4 203/1/4 273/1/4
f 203/1/4 274/1/4 205/1/4
f 41/1/3 42/1/3 39/1/3
f 42/1/3 41/1/3 44/1/3
f 41/1/1 274/1/1 44/1/1
f 274/1/1 41/1/1 205/1/1
f 274/1/2 42/1/2 44/1/2
f 42/1/2 274/1/2 273/1/2
f 203/1/6 41/1/6 39/1/6
f 41/1/6 203/1/6 205/1/6
f 213/1/15 276/1/15 275/1/15
f 276/1/15 213/1/15 277/1/15
f 278/1/4 213/1/4 275/1/4
f 213/1/4 278/1/4 216/1/4
f 279/1/3 276/1/3 277/1/3
f 276/1/3 279/1/3 280/1/3
f 279/1/1 278/1/1 280/1/1
f 278/1/1 279/1/1 216/1/1
f 278/1/2 276/1/2 280/1/2
f 276/1/2 278/1/2 275/1/2
f 213/1/6 279/1/6 277/1/6
f 279/1/6 213/1/6 216/1/6
f 216/2/15 281/2/15 217/2/15
f 281/2/15 216/2/15 279/2/15
f 282/2/4 216/2/4 217/2/4
f 216/2/4 282/2/4 283/2/4
f 284/2/3 281/2/3 279/2/3
f 281/2/3 284/2/3 285/2/3
f 284/2/1 282/2/1 285/2/1
f 282/2/1 284/2/1 283/2/1
f 282/2/2 281/2/2 285/2/2
f 281/2/2 282/2/2 217/2/2
f 216/2/6 284/2/6 279/2/6
f 284/2/6 216/2/6 283/2/6
f 283/1/15 285/1/15 282/1/15
f 285/1/15 283/1/15 284/1/15
f 286/1/4 283/1/4 282/1/4
f 283/1/4 286/1/4 222/1/4
f 287/1/3 285/1/3 284/1/3
f 285/1/3 287/1/3 288/1/3
f 287/1/1 286/1/1 288/1/1
f 286/1/1 287/1/1 222/1/1
f 286/1/2 285/1/2 288/1/2
f 285/1/2 286/1/2 282/1/2
f 283/1/6 287/1/6 284/1/6
f 287/1/6 283/1/6 222/1/6
f 222/1/15 289/1/15 225/1/15
f 289/1/15 222/1/15 287/1/15
f 229/1/4 222/1/4 225/1/4
f 222/1/4 229/1/4 228/1/4
f 290/1/3 289/1/3 287/1/3
f 289/1/3 290/1/3 291/1/3
f 290/1/1 229/1/1 291/1/1
f 229/1/1 290/1/1 228/1/1
f 229/1/2 289/1/2 291/1/2
f 289/1/2 229/1/2 225/1/2
f 222/1/6 290/1/6 287/1/6
f 290/1/6 222/1/6 228/1/6
f 228/1/15 293/1/15 292/1/15
f 293/1/15 228/1/15 290/1/15
f 294/1/4 228/1/4 292/1/4
f 228/1/4 294/1/4 295/1/4
f 296/1/3 293/1/3 290/1/3
f 293/1/3 296/1/3 297/1/3
f 296/1/1 294/1/1 297/1/1
f 294/1/1 296/1/1 295/1/1
f 294/1/2 293/1/2 297/1/2
f 293/1/2 294/1/2 292/1/2
f 228/1/6 296/1/6 290/1/6
f 296/1/6 228/1/6 295/1/6
f 295/2/15 297/2/15 294/2/15
f 297/2/15 295/2/15 296/2/15
f 237/2/4 295/2/4 294/2/4
f 295/2/4 237/2/4 234/2/4
f 298/2/3 297/2/3 296/2/3
f 297/2/3 298/2/3 299/2/3
f 298/2/1 237/2/1 299/2/1
f 237/2/1 298/2/1 234/2/1
f 237/2/2 297/2/2 299/2/2
f 297/2/2 237/2/2 294/2/2
f 295/2/6 298/2/6 296/2/6
f 298/2/6 295/2/6 234/2/6
f 234/1/15 301/1/15 300/1/15
f 301/1/15 234/1/15 298/1/15
f 302/1/4 234/1/4 300/1/4
f 234/1/4 302/1/4 240/1/4
f 303/1/3 301/1/3 298/1/3
f 301/1/3 303/1/3 304/1/3
f 303/1/1 302/1/1 304/1/1
f 302/1/1 303/1/1 240/1/1
f 302/1/2 301/1/2 304/1/2
f 301/1/2 302/1/2 300/1/2
f 234/1/6 303/1/6 298/1/6
f 303/1/6 234/1/6 240/1/6
f 247/1/15 55/1/15 305/1/15
f 55/1/15 247/1/15 56/1/15
f 306/1/4 247/1/4 305/1/4
f 247/1/4 306/1/4 249/1/4
f 58/1/3 55/1/3 56/1/3
f 55/1/3 58/1/3 53/1/3
f 58/1/1 306/1/1 53/1/1
f 306/1/1 58/1/1 249/1/1
f 306/1/2 55/1/2 53/1/2
f 55/1/2 306/1/2 305/1/2
f 247/1/6 58/1/6 56/1/6
f 58/1/6 247/1/6 249/1/6
f 257/1/15 308/1/15 307/1/15
f 308/1/15 257/1/15 309/1/15
f 261/1/4 257/1/4 307/1/4
f 257/1/4 261/1/4 259/1/4
f 310/1/3 308/1/3 309/1/3
f 308/1/3 310/1/3 311/1/3
f 310/1/1 261/1/1 311/1/1
f 261/1/1 310/1/1 259/1/1
f 261/1/2 308/1/2 311/1/2
f 308/1/2 261/1/2 307/1/2
f 257/1/6 310/1/6 309/1/6
f 310/1/6 257/1/6 259/1/6
f 259/1/15 313/1/15 312/1/15
f 313/1/15 259/1/15 83/1/15
f 314/1/4 259/1/4 312/1/4
f 259/1/4 314/1/4 262/1/4
f 85/1/3 313/1/3 83/1/3
f 313/1/3 85/1/3 315/1/3
f 85/1/1 314/1/1 315/1/1
f 314/1/1 85/1/1 262/1/1
f 314/1/2 313/1/2 315/1/2
f 313/1/2 314/1/2 312/1/2
f 259/1/6 85/1/6 83/1/6
f 85/1/6 259/1/6 262/1/6
f 277/1/15 210/1/15 316/1/15
f 210/1/15 277/1/15 209/1/15
f 317/1/4 277/1/4 316/1/4
f 277/1/4 317/1/4 284/1/4
f 318/1/3 210/1/3 209/1/3
f 210/1/3 318/1/3 319/1/3
f 318/1/1 317/1/1 319/1/1
f 317/1/1 318/1/1 284/1/1
f 317/1/2 210/1/2 319/1/2
f 210/1/2 317/1/2 316/1/2
f 277/1/6 318/1/6 209/1/6
f 318/1/6 277/1/6 284/1/6
f 284/2/15 319/2/15 317/2/15
f 319/2/15 284/2/15 318/2/15
f 289/2/4 284/2/4 317/2/4
f 284/2/4 289/2/4 287/2/4
f 320/2/3 319/2/3 318/2/3
f 319/2/3 320/2/3 321/2/3
f 320/2/1 289/2/1 321/2/1
f 289/2/1 320/2/1 287/2/1
f 289/2/2 319/2/2 321/2/2
f 319/2/2 289/2/2 317/2/2
f 284/2/6 320/2/6 318/2/6
f 320/2/6 284/2/6 287/2/6
f 287/2/15 322/2/15 288/2/15
f 322/2/15 287/2/15 320/2/15
f 293/2/4 287/2/4 288/2/4
f 287/2/4 293/2/4 290/2/4
f 323/2/3 322/2/3 320/2/3
f 322/2/3 323/2/3 324/2/3
f 323/2/1 293/2/1 324/2/1
f 293/2/1 323/2/1 290/2/1
f 293/2/2 322/2/2 324/2/2
f 322/2/2 293/2/2 288/2/2
f 287/2/6 323/2/6 320/2/6
f 323/2/6 287/2/6 290/2/6
f 290/2/15 325/2/15 291/2/15
f 325/2/15 290/2/15 323/2/15
f 326/2/4 290/2/4 291/2/4
f 290/2/4 326/2/4 296/2/4
f 327/2/3 325/2/3 323/2/3
f 325/2/3 327/2/3 328/2/3
f 327/2/1 326/2/1 328/2/1
f 326/2/1 327/2/1 296/2/1
f 326/2/2 325/2/2 328/2/2
f 325/2/2 326/2/2 291/2/2
f 290/2/6 327/2/6 323/2/6
f 327/2/6 290/2/6 296/2/6
f 296/1/15 328/1/15 326/1/15
f 328/1/15 296/1/15 327/1/15
f 329/1/4 296/1/4 326/1/4
f 296/1/4 329/1/4 303/1/4
f 244/1/3 328/1/3 327/1/3
f 328/1/3 244/1/3 243/1/3
f 244/1/1 329/1/1 243/1/1
f 329/1/1 244/1/1 303/1/1
f 329/1/2 328/1/2 243/1/2
f 328/1/2 329/1/2 326/1/2
f 296/1/6 244/1/6 327/1/6
f 244/1/6 296/1/6 303/1/6
f 332/2/15 331/2/15 330/2/15
f 331/2/15 332/2/15 333/2/15
f 334/2/4 332/2/4 330/2/4
f 332/2/4 334/2/4 269/2/4
f 335/2/3 331/2/3 333/2/3
f 331/2/3 335/2/3 336/2/3
f 335/2/1 334/2/1 336/2/1
f 334/2/1 335/2/1 269/2/1
f 334/2/2 331/2/2 336/2/2
f 331/2/2 334/2/2 330/2/2
f 332/2/6 335/2/6 333/2/6
f 335/2/6 332/2/6 269/2/6
f 269/1/15 336/1/15 334/1/15
f 336/1/15 269/1/15 335/1/15
f 337/1/4 269/1/4 334/1/4
f 269/1/4 337/1/4 271/1/4
f 338/1/3 336/1/3 335/1/3
f 336/1/3 338/1/3 339/1/3
f 338/1/1 337/1/1 339/1/1
f 337/1/1 338/1/1 271/1/1
f 337/1/2 336/1/2 339/1/2
f 336/1/2 337/1/2 334/1/2
f 269/1/6 338/1/6 335/1/6
f 338/1/6 269/1/6 271/1/6
f 309/1/15 341/1/15 340/1/15
f 341/1/15 309/1/15 342/1/15
f 343/1/4 309/1/4 340/1/4
f 309/1/4 343/1/4 310/1/4
f 344/1/3 341/1/3 342/1/3
f 341/1/3 344/1/3 345/1/3
f 344/1/1 343/1/1 345/1/1
f 343/1/1 344/1/1 310/1/1
f 343/1/2 341/1/2 345/1/2
f 341/1/2 343/1/2 340/1/2
f 309/1/6 344/1/6 342/1/6
f 344/1/6 309/1/6 310/1/6
f 310/2/15 345/2/15 343/2/15
f 345/2/15 310/2/15 344/2/15
f 346/2/4 310/2/4 343/2/4
f 310/2/4 346/2/4 347/2/4
f 348/2/3 345/2/3 344/2/3
f 345/2/3 348/2/3 349/2/3
f 348/2/1 346/2/1 349/2/1
f 346/2/1 348/2/1 347/2/1
f 346/2/2 345/2/2 349/2/2
f 345/2/2 346/2/2 343/2/2
f 310/2/6 348/2/6 344/2/6
f 348/2/6 310/2/6 347/2/6
f 333/1/15 350/1/15 331/1/15
f 350/1/15 333/1/15 351/1/15
f 336/1/4 333/1/4 331/1/4
f 333/1/4 336/1/4 335/1/4
f 352/1/3 350/1/3 351/1/3
f 350/1/3 352/1/3 353/1/3
f 352/1/1 336/1/1 353/1/1
f 336/1/1 352/1/1 335/1/1
f 336/1/2 350/1/2 353/1/2
f 350/1/2 336/1/2 331/1/2
f 333/1/6 352/1/6 351/1/6
f 352/1/6 333/1/6 335/1/6
f 335/1/15 355/1/15 354/1/15
f 355/1/15 335/1/15 356/1/15
f 357/1/4 335/1/4 354/1/4
f 335/1/4 357/1/4 338/1/4
f 358/1/3 355/1/3 356/1/3
f 355/1/3 358/1/3 359/1/3
f 358/1/1 357/1/1 359/1/1
f 357/1/1 358/1/1 338/1/1
f 357/1/2 355/1/2 359/1/2
f 355/1/2 357/1/2 354/1/2
f 335/1/6 358/1/6 356/1/6
f 358/1/6 335/1/6 338/1/6
f 198/1/15 361/1/15 360/1/15
f 361/1/15 198/1/15 362/1/15
f 363/1/4 198/1/4 360/1/4
f 198/1/4 363/1/4 199/1/4
f 364/1/3 361/1/3 362/1/3
f 361/1/3 364/1/3 365/1/3
f 364/1/1 363/1/1 365/1/1
f 363/1/1 364/1/1 199/1/1
f 363/1/2 361/1/2 365/1/2
f 361/1/2 363/1/2 360/1/2
f 198/1/6 364/1/6 362/1/6
f 364/1/6 198/1/6 199/1/6
f 252/1/15 367/1/15 366/1/15
f 367/1/15 252/1/15 368/1/15
f 369/1/4 252/1/4 366/1/4
f 252/1/4 369/1/4 253/1/4
f 370/1/3 367/1/3 368/1/3
f 367/1/3 370/1/3 371/1/3
f 370/1/1 369/1/1 371/1/1
f 369/1/1 370/1/1 253/1/1
f 369/1/2 367/1/2 371/1/2
f 367/1/2 369/1/2 366/1/2
f 252/1/6 370/1/6 368/1/6
f 370/1/6 252/1/6 253/1/6
f 342/1/15 178/1/15 372/1/15
f 178/1/15 342/1/15 177/1/15
f 373/1/4 342/1/4 372/1/4
f 342/1/4 373/1/4 344/1/4
f 374/1/3 178/1/3 177/1/3
f 178/1/3 374/1/3 375/1/3
f 374/1/1 373/1/1 375/1/1
f 373/1/1 374/1/1 344/1/1
f 373/1/2 178/1/2 375/1/2
f 178/1/2 373/1/2 372/1/2
f 342/1/6 374/1/6 177/1/6
f 374/1/6 342/1/6 344/1/6
f 344/1/15 376/1/15 345/1/15
f 376/1/15 344/1/15 377/1/15
f 349/1/4 344/1/4 345/1/4
f 344/1/4 349/1/4 348/1/4
f 378/1/3 376/1/3 377/1/3
f 376/1/3 378/1/3 379/1/3
f 378/1/1 349/1/1 379/1/1
f 349/1/1 378/1/1 348/1/1
f 349/1/2 376/1/2 379/1/2
f 376/1/2 349/1/2 345/1/2
f 344/1/6 378/1/6 377/1/6
f 378/1/6 344/1/6 348/1/6
f 351/1/15 381/1/15 380/1/15
f 381/1/15 351/1/15 382/1/15
f 383/1/4 351/1/4 380/1/4
f 351/1/4 383/1/4 352/1/4
f 356/1/3 381/1/3 382/1/3
f 381/1/3 356/1/3 355/1/3
f 356/1/1 383/1/1 355/1/1
f 383/1/1 356/1/1 352/1/1
f 383/1/2 381/1/2 355/1/2
f 381/1/2 383/1/2 380/1/2
f 351/1/6 356/1/6 382/1/6
f 356/1/6 351/1/6 352/1/6
f 362/2/15 384/2/15 361/2/15
f 384/2/15 362/2/15 134/2/15
f 365/2/4 362/2/4 361/2/4
f 362/2/4 365/2/4 364/2/4
f 385/2/3 384/2/3 134/2/3
f 384/2/3 385/2/3 386/2/3
f 385/2/1 365/2/1 386/2/1
f 365/2/1 385/2/1 364/2/1
f 365/2/2 384/2/2 386/2/2
f 384/2/2 365/2/2 361/2/2
f 362/2/6 385/2/6 134/2/6
f 385/2/6 362/2/6 364/2/6
f 368/2/15 387/2/15 367/2/15
f 387/2/15 368/2/15 388/2/15
f 371/2/4 368/2/4 367/2/4
f 368/2/4 371/2/4 370/2/4
f 176/2/3 387/2/3 388/2/3
f 387/2/3 176/2/3 389/2/3
f 176/2/1 371/2/1 389/2/1
f 371/2/1 176/2/1 370/2/1
f 371/2/2 387/2/2 389/2/2
f 387/2/2 371/2/2 367/2/2
f 368/2/6 176/2/6 388/2/6
f 176/2/6 368/2/6 370/2/6
f 377/1/15 391/1/15 390/1/15
f 391/1/15 377/1/15 392/1/15
f 393/1/4 377/1/4 390/1/4
f 377/1/4 393/1/4 378/1/4
f 394/1/3 391/1/3 392/1/3
f 391/1/3 394/1/3 395/1/3
f 394/1/1 393/1/1 395/1/1
f 393/1/1 394/1/1 378/1/1
f 393/1/2 391/1/2 395/1/2
f 391/1/2 393/1/2 390/1/2
f 377/1/6 394/1/6 392/1/6
f 394/1/6 377/1/6 378/1/6
f 131/1/15 397/1/15 396/1/15
f 397/1/15 131/1/15 398/1/15
f 399/1/4 131/1/4 396/1/4
f 131/1/4 399/1/4 134/1/4
f 400/1/3 397/1/3 398/1/3
f 397/1/3 400/1/3 401/1/3
f 400/1/1 399/1/1 401/1/1
f 399/1/1 400/1/1 134/1/1
f 399/1/2 397/1/2 401/1/2
f 397/1/2 399/1/2 396/1/2
f 131/1/6 400/1/6 398/1/6
f 400/1/6 131/1/6 134/1/6
f 134/1/15 402/1/15 135/1/15
f 402/1/15 134/1/15 403/1/15
f 404/1/4 134/1/4 135/1/4
f 134/1/4 404/1/4 385/1/4
f 405/1/3 402/1/3 403/1/3
f 402/1/3 405/1/3 406/1/3
f 405/1/1 404/1/1 406/1/1
f 404/1/1 405/1/1 385/1/1
f 404/1/2 402/1/2 406/1/2
f 402/1/2 404/1/2 135/1/2
f 134/1/6 405/1/6 403/1/6
f 405/1/6 134/1/6 385/1/6
f 388/1/15 408/1/15 407/1/15
f 408/1/15 388/1/15 409/1/15
f 175/1/4 388/1/4 407/1/4
f 388/1/4 175/1/4 176/1/4
f 410/1/3 408/1/3 409/1/3
f 408/1/3 410/1/3 411/1/3
f 410/1/1 175/1/1 411/1/1
f 175/1/1 410/1/1 176/1/1
f 175/1/2 408/1/2 411/1/2
f 408/1/2 175/1/2 407/1/2
f 388/1/6 410/1/6 409/1/6
f 410/1/6 388/1/6 176/1/6
f 176/1/15 413/1/15 412/1/15
f 413/1/15 176/1/15 414/1/15
f 415/1/4 176/1/4 412/1/4
f 176/1/4 415/1/4 177/1/4
f 416/1/3 413/1/3 414/1/3
f 413/1/3 416/1/3 417/1/3
f 416/1/1 415/1/1 417/1/1
f 415/1/1 416/1/1 177/1/1
f 415/1/2 413/1/2 417/1/2
f 413/1/2 415/1/2 412/1/2
f 176/1/6 416/1/6 414/1/6
f 416/1/6 176/1/6 177/1/6
f 177/2/15 418/2/15 178/2/15
f 418/2/15 177/2/15 416/2/15
f 375/2/4 177/2/4 178/2/4
f 177/2/4 375/2/4 374/2/4
f 419/2/3 418/2/3 416/2/3
f 418/2/3 419/2/3 420/2/3
f 419/2/1 375/2/1 420/2/1
f 375/2/1 419/2/1 374/2/1
f 375/2/2 418/2/2 420/2/2
f 418/2/2 375/2/2 178/2/2
f 177/2/6 419/2/6 416/2/6
f 419/2/6 177/2/6 374/2/6
f 398/1/15 359/1/15 421/1/15
f 359/1/15 398/1/15 358/1/15
f 422/1/4 398/1/4 421/1/4
f 398/1/4 422/1/4 400/1/4
f 403/1/3 359/1/3 358/1/3
f 359/1/3 403/1/3 402/1/3
f 403/1/1 422/1/1 402/1/1
f 422/1/1 403/1/1 400/1/1
f 422/1/2 359/1/2 402/1/2
f 359/1/2 422/1/2 421/1/2
f 398/1/6 403/1/6 358/1/6
f 403/1/6 398/1/6 400/1/6
f 414/1/15 424/1/15 423/1/15
f 424/1/15 414/1/15 425/1/15
f 420/1/4 414/1/4 423/1/4
f 414/1/4 420/1/4 419/1/4
f 426/1/3 424/1/3 425/1/3
f 424/1/3 426/1/3 427/1/3
f 426/1/1 420/1/1 427/1/1
f 420/1/1 426/1/1 419/1/1
f 420/1/2 424/1/2 427/1/2
f 424/1/2 420/1/2 423/1/2
f 414/1/6 426/1/6 425/1/6
f 426/1/6 414/1/6 419/1/6
f 425/2/15 411/2/15 424/2/15
f 411/2/15 425/2/15 410/2/15
f 428/2/4 425/2/4 424/2/4
f 425/2/4 428/2/4 429/2/4
f 430/2/3 411/2/3 410/2/3
f 411/2/3 430/2/3 431/2/3
f 430/2/1 428/2/1 431/2/1
f 428/2/1 430/2/1 429/2/1
f 428/2/2 411/2/2 431/2/2
f 411/2/2 428/2/2 424/2/2
f 425/2/6 430/2/6 410/2/6
f 430/2/6 425/2/6 429/2/6
f 429/1/15 431/1/15 428/1/15
f 431/1/15 429/1/15 430/1/15
f 427/1/4 429/1/4 428/1/4
f 429/1/4 427/1/4 426/1/4
f 392/1/3 431/1/3 430/1/3
f 431/1/3 392/1/3 391/1/3
f 392/1/1 427/1/1 391/1/1
f 427/1/1 392/1/1 426/1/1
f 427/1/2 431/1/2 391/1/2
f 431/1/2 427/1/2 428/1/2
f 429/1/6 392/1/6 430/1/6
f 392/1/6 429/1/6 426/1/6
f 3/1/15 99/1/15 96/1/15
f 99/1/15 3/1/15 100/1/15
f 101/1/4 3/1/4 96/1/4
f 3/1/4 101/1/4 26/1/4
f 102/1/3 99/1/3 100/1/3
f 99/1/3 102/1/3 103/1/3
f 102/1/1 101/1/1 103/1/1
f 101/1/1 102/1/1 26/1/1
f 101/1/2 99/1/2 103/1/2
f 99/1/2 101/1/2 96/1/2
f 3/1/6 102/1/6 100/1/6
f 102/1/6 3/1/6 26/1/6
f 106/1/15 109/1/15 105/1/15
f 109/1/15 106/1/15 110/1/15
f 111/1/4 106/1/4 105/1/4
f 106/1/4 111/1/4 77/1/4
f 112/1/3 109/1/3 110/1/3
f 109/1/3 112/1/3 113/1/3
f 112/1/1 111/1/1 113/1/1
f 111/1/1 112/1/1 77/1/1
f 111/1/2 109/1/2 113/1/2
f 109/1/2 111/1/2 105/1/2
f 106/1/6 112/1/6 110/1/6
f 112/1/6 106/1/6 77/1/6
f 133/1/15 136/1/15 132/1/15
f 136/1/15 133/1/15 137/1/15
f 117/1/4 133/1/4 132/1/4
f 133/1/4 117/1/4 116/1/4
f 138/1/3 136/1/3 137/1/3
f 136/1/3 138/1/3 139/1/3
f 138/1/1 117/1/1 139/1/1
f 117/1/1 138/1/1 116/1/1
f 117/1/2 136/1/2 139/1/2
f 136/1/2 117/1/2 132/1/2
f 133/1/6 138/1/6 137/1/6
f 138/1/6 133/1/6 116/1/6

